<svg aria-hidden="true" style="width:0;height:0;position:absolute;overflow:hidden" xmlns="http://www.w3.org/2000/svg"><defs><symbol id="icon-amazon" viewBox="0 0 106 32"><path d="M65.759 24.999c-6.154 4.536-15.073 6.956-22.753 6.956-10.768 0-20.462-3.983-27.796-10.607-.576-.521-.06-1.231.631-.825 7.915 4.605 17.701 7.375 27.809 7.375 6.818 0 14.317-1.411 21.213-4.338 1.042-.443 1.913.682.894 1.438z"/><path d="M68.318 22.072c-.784-1.005-5.2-.475-7.182-.24-.604.074-.696-.452-.152-.83 3.517-2.475 9.288-1.761 9.961-.931.673.834-.175 6.619-3.48 9.38-.507.424-.991.198-.765-.364.742-1.853 2.406-6.006 1.618-7.016zM61.274 3.528V1.122c0-.364.277-.608.608-.608h10.773c.346 0 .622.249.622.608v2.06c-.005.346-.295.797-.811 1.512l-5.582 7.97c2.074-.051 4.264.258 6.145 1.318.424.24.539.59.572.936v2.568c0 .35-.387.761-.793.549-3.314-1.738-7.716-1.927-11.381.018-.373.203-.765-.203-.765-.553v-2.438c0-.392.005-1.06.396-1.655l6.467-9.274h-5.628c-.346 0-.622-.244-.622-.604zM21.978 18.541h-3.277a.619.619 0 0 1-.585-.558V1.163c0-.337.281-.604.631-.604h3.056a.618.618 0 0 1 .595.562V3.32h.06c.797-2.125 2.296-3.116 4.315-3.116 2.051 0 3.333.991 4.255 3.116.793-2.125 2.595-3.116 4.527-3.116 1.374 0 2.876.567 3.794 1.839 1.037 1.415.825 3.471.825 5.273l-.005 10.616a.618.618 0 0 1-.632.608h-3.273a.623.623 0 0 1-.59-.608V9.017c0-.71.065-2.48-.092-3.153-.244-1.129-.977-1.447-1.927-1.447-.793 0-1.623.53-1.959 1.378s-.304 2.268-.304 3.222v8.915a.618.618 0 0 1-.631.608h-3.273a.62.62 0 0 1-.59-.608l-.005-8.915c0-1.876.309-4.637-2.019-4.637-2.355 0-2.263 2.692-2.263 4.637v8.915a.618.618 0 0 1-.631.608zM82.552.205c4.863 0 7.495 4.176 7.495 9.486 0 5.13-2.909 9.201-7.495 9.201-4.775 0-7.375-4.176-7.375-9.38 0-5.236 2.632-9.307 7.375-9.307zm.028 3.434c-2.415 0-2.568 3.291-2.568 5.342 0 2.056-.032 6.444 2.54 6.444 2.54 0 2.66-3.54 2.66-5.697 0-1.42-.06-3.116-.489-4.462-.369-1.171-1.102-1.627-2.143-1.627zM96.353 18.541h-3.264a.623.623 0 0 1-.59-.608l-.005-16.825a.62.62 0 0 1 .632-.549h3.038a.626.626 0 0 1 .585.47v2.572h.06c.917-2.3 2.203-3.397 4.467-3.397 1.47 0 2.904.53 3.826 1.982.857 1.346.857 3.609.857 5.236V18.01c-.037.295-.309.53-.632.53h-3.287c-.3-.023-.549-.244-.581-.53V8.874c0-1.839.212-4.531-2.051-4.531-.797 0-1.53.535-1.895 1.346-.461 1.028-.521 2.051-.521 3.185v9.058a.63.63 0 0 1-.641.608zM52.687 10.507v-.71c-2.369 0-4.872.507-4.872 3.3 0 1.415.733 2.374 1.991 2.374.922 0 1.747-.567 2.268-1.489.645-1.134.613-2.199.613-3.476zm3.305 7.988a.683.683 0 0 1-.774.078c-1.088-.903-1.281-1.323-1.881-2.185-1.798 1.835-3.07 2.383-5.402 2.383-2.757 0-4.905-1.701-4.905-5.107 0-2.66 1.443-4.471 3.494-5.356 1.779-.784 4.264-.922 6.163-1.139v-.424c0-.779.06-1.701-.396-2.374-.401-.604-1.166-.853-1.839-.853-1.249 0-2.365.641-2.637 1.968-.055.295-.272.585-.567.599l-3.181-.341c-.267-.06-.562-.277-.489-.687.733-3.854 4.213-5.015 7.329-5.015 1.595 0 3.678.424 4.937 1.632 1.595 1.489 1.443 3.476 1.443 5.638v5.107c0 1.535.636 2.208 1.235 3.038.212.295.258.65-.009.871a138.67 138.67 0 0 0-2.512 2.176l-.009-.009zM9.721 10.507v-.71c-2.369 0-4.872.507-4.872 3.3 0 1.415.733 2.374 1.991 2.374.922 0 1.747-.567 2.268-1.489.645-1.134.613-2.199.613-3.476zm3.305 7.988a.683.683 0 0 1-.774.078c-1.088-.903-1.281-1.323-1.881-2.185-1.798 1.835-3.07 2.383-5.402 2.383-2.756 0-4.905-1.701-4.905-5.107 0-2.66 1.443-4.471 3.494-5.356 1.779-.784 4.264-.922 6.163-1.139v-.424c0-.779.06-1.701-.396-2.374-.401-.604-1.166-.853-1.839-.853-1.249 0-2.365.641-2.637 1.968-.055.295-.272.585-.567.599l-3.181-.341c-.267-.06-.562-.277-.489-.687C1.345 1.203 4.825.042 7.941.042c1.595 0 3.678.424 4.937 1.632 1.595 1.489 1.443 3.476 1.443 5.638v5.107c0 1.535.636 2.208 1.235 3.038.212.295.258.65-.009.871a138.67 138.67 0 0 0-2.512 2.176l-.009-.009z"/></symbol><symbol id="icon-apple-books-logo" viewBox="0 0 32 32"><path d="M9.916 5.758a4.16 4.16 0 0 0-4.16 4.16v12.48a4.16 4.16 0 0 0 4.16 4.16h12.48a4.16 4.16 0 0 0 4.16-4.16V9.918a4.16 4.16 0 0 0-4.16-4.16H9.916zm0 .639h12.48a3.52 3.52 0 0 1 3.52 3.52v12.48a3.52 3.52 0 0 1-3.52 3.52H9.916a3.52 3.52 0 0 1-3.52-3.52V9.917a3.52 3.52 0 0 1 3.52-3.52zm.907.96a3.467 3.467 0 0 0-3.467 3.467v10.664a3.468 3.468 0 0 0 3.467 3.468h10.664a3.468 3.468 0 0 0 3.468-3.468v-5.972c0-.088-.072-.16-.16-.16s-.16.072-.16.16v5.972a3.148 3.148 0 0 1-3.148 3.148H10.823a3.148 3.148 0 0 1-3.148-3.148V10.824a3.147 3.147 0 0 1 3.148-3.147h10.773c.088 0 .16-.072.16-.16s-.072-.16-.16-.16H10.823zm1.823 3.523c-1.316 0-2.16.415-2.668.837s-.687.864-.687.864a.159.159 0 0 0-.011.059v8.32a.16.16 0 0 0 .274.113s.216-.219.676-.449 1.154-.463 2.091-.463c2.467 0 3.386 2.144 3.386 2.144a.16.16 0 0 0 .307-.064v-9.28a.152.152 0 0 0-.018-.073v.001s-1.023-2.008-3.349-2.008zm7.04 0c-2.326 0-3.349 2.008-3.349 2.008a.156.156 0 0 0-.017.072v9.28c0 .088.072.16.16.16a.159.159 0 0 0 .146-.095v-.001s.919-2.144 3.386-2.144c.937 0 1.631.233 2.091.463s.676.449.676.449a.16.16 0 0 0 .274-.113v-8.32a.153.153 0 0 0-.012-.06v.001s-.18-.441-.688-.864-1.351-.837-2.668-.837zm-7.04.32c2.117 0 3.024 1.768 3.046 1.811v8.669c-.459-.683-1.491-1.84-3.373-1.84-.99 0-1.735.247-2.234.497-.319.16-.368.229-.486.327V12.68c.012-.03.149-.355.583-.716.454-.378 1.213-.763 2.463-.763zm7.04 0c1.25 0 2.009.386 2.463.763.434.361.571.687.583.716v7.984c-.118-.098-.167-.167-.486-.327-.498-.25-1.244-.497-2.234-.497-1.882 0-2.913 1.157-3.372 1.84V13.01c.022-.043.93-1.811 3.046-1.811zm5.11.503a.16.16 0 0 0-.16.16v.64a.16.16 0 1 0 .32 0v-.64a.16.16 0 0 0-.16-.16zm0 1.279a.16.16 0 0 0-.16.16v1.28a.16.16 0 1 0 .32 0v-1.28a.16.16 0 0 0-.16-.16z"/></symbol><symbol id="icon-Barnes__Noble_logo" viewBox="0 0 209 32"><path d="M209.021 26.553v4.426h-11.574V1.702h10.757v4.426h-5.651v7.83h5.038v4.085h-5.106v8.511h6.536zM182.809 1.634h5.447v24.919h6.128v4.426H182.81V1.634zm-3.745 20.97c0 6.128-2.723 8.374-7.489 8.374h-6.536V1.701h6.604c5.243 0 6.604 2.996 6.604 7.966 0 3.677-1.362 5.583-3.608 5.719 2.519 0 4.494 2.519 4.494 7.217h-.068zm-7.898-17.498h-.953v8.511h1.362c1.362 0 1.566-1.362 1.566-3.813 0-3.404-.409-4.766-2.043-4.766l.068.068zm.204 11.983h-1.157v10.417h1.362c1.566 0 2.043-.953 2.043-5.447 0-3.2-.477-4.902-2.247-4.902v-.068zm-17.293 14.434c-4.562 0-6.945-1.906-6.945-15.115 0-12.8 2.043-14.979 7.013-14.979 5.106 0 7.013 2.179 7.013 14.979 0 12.528-2.043 15.115-7.013 15.115h-.068zm1.361-24.646c-.204-2.043-.681-2.519-1.362-2.519-.817 0-1.226.409-1.362 2.519-.136 2.043-.136 4.97-.136 9.532 0 5.447 0 7.489.204 9.396.136 2.247.545 2.451 1.362 2.451.885 0 1.157 0 1.362-2.451V6.809l-.068.068zm-19.744 13.276c-.477-1.362-.817-2.996-1.226-5.038.272 3.949.272 5.038.272 8.511v7.489h-4.97V1.838h4.902s2.179 8.647 2.723 10.417c.477 1.838.885 3.268 1.021 4.63-.136-2.928-.136-6.4-.136-9.328V1.634h4.766v29.277h-4.153l-3.268-10.894.068.136zm-37.651 3.132c0 4.766-2.043 8.17-6.672 8.17-3.949 0-6.604-2.043-6.604-7.149 0-1.157 0-2.247.272-3.132h4.766c-.204 1.089-.34 1.77-.34 3.064 0 3.268.817 3.813 2.043 3.813.885 0 1.566-.477 1.566-3.745 0-2.86-2.043-4.97-4.085-7.489-2.179-2.451-4.426-5.719-4.426-8.443 0-4.357 2.043-6.809 6.264-6.809 4.085 0 6.332 2.179 6.332 6.468 0 .953-.272 1.702-.409 2.383h-4.357l.136-2.043c0-2.723-.409-3.745-1.566-3.745-1.226 0-1.362 1.157-1.362 3.268 0 2.723 2.043 4.766 3.881 6.945 2.451 3.132 4.494 5.583 4.494 8.647l.068-.204zM70.128 1.702h10.894v4.426h-5.651v7.83h5.038v4.085h-4.97v8.511h6.468v4.426H70.333V1.703h-.204zM57.872 20.085a40.449 40.449 0 0 1-1.157-5.038c.272 3.949.272 5.038.272 8.511v7.489h-4.902V1.77h4.902l2.723 10.417c.545 1.838.953 3.268 1.226 4.63-.136-2.928-.272-6.4-.272-9.328V1.634h4.766v29.277h-4.289l-3.2-10.894-.068.068zM43.302 16c3.404.817 3.745 4.766 3.745 8.306 0 2.723.204 5.243.545 6.672h-5.447c0-1.226-.34-1.702-.34-4.494v-3.677c0-2.383-.817-4.085-2.519-4.562h-.272v12.596h-5.447V1.564h7.966c3.608 0 6.128 2.043 6.128 7.489 0 4.494-2.043 6.468-4.357 6.809v.136zM39.898 5.379h-.953v8.374h1.566c1.362 0 1.77-.885 1.77-3.404 0-4.426-.681-5.038-2.383-4.97zM24.374 26.213H20.97l-.409 4.766h-4.562l4.289-29.481h5.174l4.97 29.413h-5.447l-.681-4.766.068.068zm-.953-8.851c-.136-1.362-.681-5.651-.681-8.443-.204 2.928-.681 7.081-.681 8.374l-.681 5.651h2.723l-.681-5.583zm-9.395 5.106c0 6.128-2.723 8.374-7.489 8.374H.001V1.565h6.604c5.174 0 6.536 2.996 6.536 7.966 0 3.677-1.362 5.583-3.608 5.719 2.519 0 4.494 2.519 4.494 7.217zM6.128 5.106H5.107v8.511h1.362c1.362 0 1.566-1.362 1.566-3.813 0-3.404-.34-4.766-2.043-4.766l.136.068zm.136 11.915H5.175v10.417h1.362c1.566 0 2.043-.953 2.043-5.447 0-3.2-.477-4.902-2.247-4.902l-.068-.068zM127.183 18.928c-.136.953-.681 1.702-1.77 1.702-2.247 0-.477-3.404-2.587-3.404-1.226 0-2.043 1.089-3.404 3.949l-2.043 4.902.409.885c1.362 1.838 2.587 3.132 4.085 3.132.817 0 1.702-.409 3.064-1.77l.681.953c-1.498 1.838-3.404 2.86-5.106 2.86-2.043 0-3.813-1.838-5.106-3.268-1.906 2.043-4.085 3.268-7.081 3.268-4.289 0-8.17-2.723-7.217-8.851.817-3.677 3.609-6.128 6.808-8.17-.953-2.451-1.498-5.447-1.089-7.694.749-4.698 4.97-7.421 8.579-7.421 4.221 0 6.128 2.86 5.447 6.128-.34 1.702-1.089 3.268-2.86 4.766-1.838 1.634-4.902 3.064-6.604 4.085 1.089 2.723 2.723 5.787 5.038 9.736.681-1.362 1.702-3.813 2.723-5.787.885-2.043 2.315-3.268 4.426-3.268 2.928 0 3.745 2.043 3.609 3.268zm-22.809 5.106c-.409 2.519 1.157 5.923 5.243 5.923 2.043 0 3.404-.545 4.766-2.247-2.587-3.677-4.426-7.217-5.923-10.757-2.043 1.77-3.54 3.745-4.085 7.081zM116.97 9.26c.885-1.157 1.157-2.043 1.362-2.996.477-2.451-.953-4.085-3.064-4.085-2.723 0-4.766 2.247-4.902 4.357-.477 2.315-.204 4.562.545 6.945 1.634-.953 5.038-3.064 6.128-4.221h-.068z"/></symbol><symbol id="icon-Books-A-Million_logo" viewBox="0 0 86 32"><path d="M2.297 30.32h.738c.419 0 .678-.099.678-.525 0-.384-.259-.523-.678-.523h-.738v1.048zm0-2.595h.645c.419 0 .679-.099.679-.524 0-.385-.26-.524-.679-.524h-.645v1.048zm3.394-1.687c.31.426.335 1.056.21 1.441-.202.598-.528.802-1.097.991.46.156.812.294 1.131.843.251.443.251 1.13.007 1.547-.477.852-1.817.852-2.245.852H.043v-6.444h3.528c.586 0 1.6.05 2.12.77zM9.974 29.911c.746 0 1.339-.623 1.339-1.351s-.567-1.35-1.348-1.35c-.797 0-1.368.622-1.368 1.35s.572 1.351 1.377 1.351zm-3.672-1.352c0-1.874 1.575-3.396 3.655-3.396 2.093 0 3.653 1.522 3.653 3.396s-1.559 3.398-3.653 3.398c-2.062 0-3.655-1.523-3.655-3.398zM17.598 29.911c.745 0 1.34-.623 1.34-1.351s-.569-1.35-1.349-1.35c-.797 0-1.367.622-1.367 1.35s.57 1.351 1.377 1.351zm-3.672-1.352c0-1.874 1.576-3.396 3.654-3.396 2.095 0 3.655 1.522 3.655 3.396s-1.559 3.398-3.655 3.398c-2.06 0-3.654-1.523-3.654-3.398zM34.925 29.605a.974.974 0 0 0 .966-.972.965.965 0 0 0-.972-.973.968.968 0 0 0-.984.973c0 .524.411.972.99.972zM43.628 29.607a.974.974 0 0 0 .965-.972.964.964 0 0 0-.972-.973.967.967 0 0 0-.982.973c0 .524.41.972.989.972zM23.904 25.268v2.685l1.725-2.685h2.456l-1.961 2.956 2.261 3.488h-2.698l-1.784-2.743v2.743h-2.255v-6.444h2.255z"/><path d="M31.846 27.169c-.16-.418-.302-.582-.728-.631-.177-.024-.545-.007-.723.213a.391.391 0 0 0-.049.385c.143.343.695.319 1.021.343.613.041 1.527.181 1.995 1.008.311.556.311 1.415-.008 2.03-.486.932-1.442 1.285-2.187 1.367-.586.081-1.902-.009-2.615-.795-.141-.155-.267-.352-.41-.72l1.608-.589c.26.458.529.654.963.663.22 0 .496-.049.647-.269a.384.384 0 0 0 .007-.402c-.151-.286-.56-.278-.93-.295-.535-.033-1.5-.221-1.944-1.04-.343-.622-.334-1.391.009-2.046.444-.852 1.241-1.138 1.936-1.237.563-.081 1.87-.073 2.54.614.201.229.319.475.411.81l-1.542.59zM39.213 28.335l-.576 1.244h1.162l-.586-1.244zm-1.586 3.417h-2.496l3.98-6.609h.212l3.983 6.609H40.81l-.375-.796h-2.436l-.372.796zM45.303 25.187l3.143 2.546 3.301-2.546h.169l.199 6.525h-2.178l-.127-2.367-1.373 1.082-1.5-1.139-.091 2.424h-2.012l.284-6.525h.186zM55.136 31.712h-2.255v-6.444h2.255v6.444zM58.171 25.268v4.962h1.976v1.482h-4.229v-6.444h2.253zM62.855 25.268v4.962h1.976v1.482H60.6v-6.444h2.255zM67.612 31.712h-2.254v-6.444h2.254v6.444zM71.853 29.911c.745 0 1.34-.623 1.34-1.351s-.569-1.35-1.35-1.35c-.796 0-1.366.622-1.366 1.35s.571 1.351 1.376 1.351zm-3.672-1.352c0-1.874 1.576-3.396 3.655-3.396 2.093 0 3.653 1.522 3.653 3.396s-1.559 3.398-3.653 3.398c-2.062 0-3.655-1.523-3.655-3.398zM76.282 25.187l4.242 2.602v-2.521h2.253v6.616h-.158l-4.317-2.612v2.44h-2.255v-6.525h.234zM85.158 1.12V.774h.229c.117 0 .243.026.243.164 0 .171-.128.182-.271.182h-.201zm0 .143h.194l.293.481h.189l-.317-.487c.164-.022.289-.108.289-.307 0-.22-.13-.317-.391-.317h-.427v1.112h.17v-.481zm.203.887a.958.958 0 0 0 .972-.963.958.958 0 0 0-.972-.96c-.531 0-.981.406-.981.96 0 .557.451.963.981.963zm-.788-.964c0-.458.348-.801.788-.801.438 0 .781.343.781.801 0 .463-.343.804-.781.804a.782.782 0 0 1-.788-.804zM7.495 17.33h2.432c1.383 0 2.238-.337 2.238-1.79 0-1.313-.855-1.788-2.238-1.788H7.495v3.579zm0-8.858H9.62c1.385 0 2.244-.337 2.244-1.788 0-1.314-.859-1.789-2.244-1.789H7.495v3.577zm11.194-5.757c1.023 1.453 1.103 3.604.69 4.918-.664 2.039-1.74 2.738-3.618 3.381 1.519.532 2.678 1.006 3.732 2.879.828 1.509.828 3.853.023 5.281-1.573 2.903-5.994 2.903-7.405 2.903H.059V.091h11.637c1.932 0 5.277.168 6.992 2.624zM34.041 10.941l-1.902 4.101h3.836l-1.934-4.101zm-5.233 11.268h-8.235L33.705.41h.698l13.136 21.799h-8.232l-1.234-2.625h-8.034l-1.231 2.625zM50.725.556l10.367 8.397L71.979.556h.556l.658 21.52H66.01l-.418-7.804-4.53 3.566-4.949-3.753-.298 7.991h-6.638l.937-21.52h.612zM81.094 20.557a2.293 2.293 0 1 1-4.586.002 2.293 2.293 0 0 1 4.586-.002zM74.614.043h8.289l-2.819 16.665h-2.82L74.613.043z"/></symbol><symbol id="icon-book-shops-lgo" viewBox="0 0 209 32"><path d="M35.704 10.45c.042-.327.062-.657.06-.986a7.68 7.68 0 0 0-.06-1.017 7.196 7.196 0 0 0-1.935-3.939 7.794 7.794 0 0 0-1.941-1.495 6.486 6.486 0 0 0-1.477-.676 14.748 14.748 0 0 0-4.039-.447h-1.079L.358 1.921a.355.355 0 0 0-.35.36v1.055a.35.35 0 0 0 .32.354h.229c.217.062.434.062.657.062.502.01 1.003.066 1.495.167.195.04.383.114.555.217.255.224.408.548.422.893.069.57.102 1.144.096 1.718V13.739c.033.406-.095.809-.356 1.117a1.76 1.76 0 0 1-.946.198h-.893c-.248 0-.603 0-1.043.043H.315c-.1.012-.19.066-.249.15s-.08.189-.059.29v1.055a.362.362 0 0 0 .326.36h.223c.338.031.603.031.928.031H2.78c.35 0 .687.031.856.447.045.11.07.228.072.347v.087c0 .347.054.701.06 1.055s0 .62 0 .924v4.045c.027.732.017 1.465-.03 2.196a2.356 2.356 0 0 1-.603 1.458c-.39.348-.888.542-1.405.546H.802c-.169 0-.332 0-.488.043H.187c-.163 0-.163.174-.163.236a.555.555 0 0 0-.018.199v1.191c0 .079.03.155.084.211.114.092.26.132.404.112H27.135c.655.006 1.309-.032 1.959-.112a7.064 7.064 0 0 0 1.284-.292 8.15 8.15 0 0 0 1.459-.67 8.086 8.086 0 0 0 1.929-1.52 7.196 7.196 0 0 0 1.935-3.939c.042-.327.062-.657.06-.986.003-.34-.017-.68-.06-1.017a7.38 7.38 0 0 0-3.014-4.895l-.892-.651.892-.62a7.35 7.35 0 0 0 3.014-4.926zm-3.141 8.741a5.525 5.525 0 0 1 1.308 3.325 5.54 5.54 0 0 1-1.308 3.375 6.195 6.195 0 0 1-1.634 1.39c-.18.101-.365.192-.555.273-1.411.62-3.014.583-4.582.546H7.109c-.415-.002-.813-.173-1.104-.477s-.454-.715-.451-1.142v-8.685a.795.795 0 0 1 .778-.794h19.467c1.32-.099 2.646.016 3.931.341a5.418 5.418 0 0 1 2.84 1.861l-.006-.012zm-1.604-5.019c-1.381.8-3.129.806-4.407.806H6.349a.802.802 0 0 1-.79-.813V4.99c0-.586.462-1.061 1.031-1.061h18.026c.82 0 1.664-.031 2.496 0 1.369.056 2.936.186 4.16 1.03a6.065 6.065 0 0 1 2.412 3.207c.125.419.196.853.211 1.29v.037a5.546 5.546 0 0 1-1.332 3.307 6.03 6.03 0 0 1-1.604 1.371zM55.593 15.793c1.774 0 3.162.43 4.164 1.291 1.019.861 1.528 1.941 1.528 3.241 0 1.458-.553 2.67-1.66 3.637s-2.749 1.449-4.928 1.449h-9.329v-.791c1.019-.053 1.695-.272 2.029-.659.351-.404.527-1.16.527-2.266V10.679c0-1.124-.176-1.88-.527-2.266-.334-.386-1.01-.606-2.029-.659v-.791h9.092c1.897 0 3.364.404 4.401 1.212s1.555 1.906 1.555 3.294c0 1.142-.448 2.108-1.344 2.899-.878.791-2.047 1.212-3.505 1.265h-.922v.158h.949zm-2.108-7.827H50.85v7.273h2.872c1.16 0 2.056-.307 2.688-.922.65-.632.975-1.528.975-2.688 0-1.37-.325-2.319-.975-2.846-.65-.545-1.625-.817-2.925-.817zm.738 16.444c1.318 0 2.31-.36 2.978-1.08s1.001-1.713 1.001-2.978c0-1.283-.369-2.284-1.107-3.004-.738-.738-1.766-1.107-3.083-1.107H50.85v6.562c0 .527.123.931.369 1.212.246.264.668.395 1.265.395h1.739zm20.052-.606c-1.23 1.283-2.802 1.924-4.717 1.924s-3.496-.641-4.744-1.924c-1.23-1.283-1.845-2.916-1.845-4.902 0-1.968.615-3.593 1.845-4.875 1.247-1.3 2.829-1.95 4.744-1.95s3.487.65 4.717 1.95c1.247 1.283 1.871 2.908 1.871 4.875 0 1.985-.624 3.619-1.871 4.902zm-8.222-4.901c0 3.742 1.168 5.613 3.505 5.613s3.505-1.871 3.505-5.613c0-3.742-1.168-5.613-3.505-5.613s-3.505 1.871-3.505 5.613zm23.174 4.901c-1.23 1.283-2.802 1.924-4.717 1.924s-3.496-.641-4.744-1.924c-1.23-1.283-1.845-2.916-1.845-4.902 0-1.968.615-3.593 1.845-4.875 1.247-1.3 2.829-1.95 4.744-1.95s3.487.65 4.717 1.95c1.247 1.283 1.871 2.908 1.871 4.875 0 1.985-.624 3.619-1.871 4.902zm-8.222-4.901c0 3.742 1.168 5.613 3.505 5.613s3.505-1.871 3.505-5.613-1.168-5.613-3.505-5.613c-2.337 0-3.505 1.871-3.505 5.613zm11.217 6.509v-.764c.896-.105 1.476-.264 1.739-.474.263-.228.395-.685.395-1.37V8.442c0-.527-.079-.887-.237-1.08s-.456-.29-.896-.29c-.281 0-.597.026-.949.079v-.712l3.979-1.054h.764v17.419c0 .668.115 1.116.343 1.344s.685.395 1.37.501v.764h-6.509zm10.988 0-5.798-6.825 3.848-3.083c.791-.668 1.186-1.203 1.186-1.608 0-.281-.105-.466-.316-.553-.211-.105-.562-.158-1.054-.158v-.791h5.455v.791c-.913.123-1.985.703-3.215 1.739l-3.11 2.556.026.132 4.375 5.06c.492.58.922 1.019 1.291 1.318.387.299.861.518 1.423.659v.764h-4.111zm9.147.316c-1.756 0-3.206-.448-4.348-1.344v-3.215h.975c.247 1.089.712 1.915 1.397 2.477s1.494.843 2.424.843c.738 0 1.327-.176 1.766-.527.457-.351.685-.835.685-1.449 0-.509-.132-.922-.395-1.239s-.694-.571-1.291-.764l-2.424-.843c-2.038-.668-3.057-1.88-3.057-3.637 0-1.195.457-2.152 1.37-2.872s2.091-1.08 3.531-1.08c1.388 0 2.68.281 3.874.843v2.952h-.949a3.48 3.48 0 0 0-1.186-1.897c-.58-.492-1.3-.738-2.161-.738-.685 0-1.239.158-1.66.474a1.499 1.499 0 0 0-.606 1.239c0 .966.536 1.643 1.608 2.029l2.793 1.001c1.828.668 2.741 1.862 2.741 3.584 0 1.265-.465 2.275-1.397 3.031s-2.161 1.133-3.689 1.133zm6.243-.316v-.764c.879-.088 1.449-.246 1.713-.474.281-.228.422-.685.422-1.37V8.442c0-.545-.079-.905-.237-1.08-.158-.193-.474-.29-.949-.29-.246 0-.544.026-.896.079v-.712l3.979-1.054h.764v6.351c0 1.476-.167 2.741-.501 3.795l.132.053c.352-1.107.922-1.968 1.713-2.583.808-.615 1.784-.922 2.925-.922 1.248 0 2.232.369 2.952 1.107.738.738 1.107 1.889 1.107 3.452v6.14c0 .703.132 1.168.395 1.397.281.211.861.369 1.739.474v.764h-6.456v-.764c.65-.123 1.09-.29 1.318-.501.229-.228.343-.589.343-1.08v-6.035c0-1.001-.237-1.748-.712-2.24-.474-.509-1.115-.764-1.924-.764-1.405 0-2.415.615-3.031 1.845v6.931c0 .668.115 1.116.343 1.344s.685.395 1.37.501v.764H118.6zm27.426-1.608c-1.23 1.283-2.803 1.924-4.717 1.924s-3.496-.641-4.744-1.924c-1.23-1.283-1.845-2.916-1.845-4.902 0-1.968.615-3.593 1.845-4.875 1.247-1.3 2.828-1.95 4.744-1.95s3.487.65 4.717 1.95c1.247 1.283 1.871 2.908 1.871 4.875 0 1.985-.624 3.619-1.871 4.902zm-8.222-4.901c0 3.742 1.168 5.613 3.505 5.613s3.505-1.871 3.505-5.613-1.169-5.613-3.505-5.613c-2.337 0-3.505 1.871-3.505 5.613zm11.164 12.438v-.764c.878-.088 1.449-.246 1.713-.474.28-.228.422-.685.422-1.37V15.451c0-.422-.097-.72-.29-.896-.176-.193-.474-.29-.896-.29-.211 0-.58.018-1.107.053v-.764l3.874-1.16h.791v1.502c0 .351-.079.896-.237 1.634l.132.026c.351-1.072.922-1.915 1.713-2.53.808-.632 1.739-.949 2.793-.949 1.545 0 2.776.553 3.689 1.66.931 1.089 1.397 2.547 1.397 4.375 0 2.231-.624 4.058-1.871 5.481-1.23 1.423-2.803 2.135-4.717 2.135-.984 0-1.854-.228-2.609-.685v3.663c0 .72.175 1.186.527 1.397.369.228 1.097.387 2.187.474v.764h-7.511zm7.405-6.72c1.142 0 2.056-.492 2.741-1.476.685-1.001 1.028-2.354 1.028-4.058 0-1.546-.299-2.732-.896-3.558-.58-.843-1.432-1.265-2.556-1.265-1.37 0-2.345.518-2.925 1.555v7.642c.72.773 1.59 1.16 2.609 1.16zm11.639.395c-.387.404-.861.606-1.423.606s-1.046-.202-1.449-.606c-.404-.404-.606-.887-.606-1.449s.202-1.037.606-1.423a1.979 1.979 0 0 1 1.449-.606c.545 0 1.019.202 1.423.606.404.387.606.861.606 1.423s-.202 1.045-.606 1.449zm13.478-1.212c-1.229 1.283-2.802 1.924-4.717 1.924s-3.496-.641-4.744-1.924c-1.229-1.283-1.845-2.916-1.845-4.902 0-1.968.616-3.593 1.845-4.875 1.248-1.3 2.829-1.95 4.744-1.95s3.488.65 4.717 1.95c1.248 1.283 1.871 2.908 1.871 4.875 0 1.985-.623 3.619-1.871 4.902zm-8.222-4.901c0 3.742 1.169 5.613 3.505 5.613s3.505-1.871 3.505-5.613-1.168-5.613-3.505-5.613c-2.336 0-3.505 1.871-3.505 5.613zm20.044-6.826c.334 0 .598.035.791.105v3.004h-.501a2.552 2.552 0 0 0-1.16-.264c-.808 0-1.493.246-2.056.738-.544.474-.817 1.247-.817 2.319v4.796c0 .72.176 1.195.527 1.423.369.211 1.098.36 2.187.448v.764h-7.511v-.764c.879-.088 1.449-.246 1.713-.474.281-.228.422-.685.422-1.37V15.45c0-.422-.096-.72-.29-.896-.175-.193-.491-.29-.949-.29-.175 0-.527.018-1.054.053v-.764l3.874-1.16h.791v2.135c0 1.107-.035 2.064-.105 2.872h.184l.237-1.528c.194-1.247.642-2.187 1.344-2.82.703-.65 1.494-.975 2.372-.975zm13.513 1.792c-.756 0-1.563-.202-2.424-.606l-.105.158c1.388.474 2.082 1.528 2.082 3.162 0 1.318-.509 2.381-1.528 3.189-1.001.808-2.301 1.212-3.9 1.212a7.924 7.924 0 0 1-2.029-.264c-.931.105-1.397.518-1.397 1.239 0 .738.641 1.151 1.924 1.239l4.243.237c2.759.141 4.137 1.23 4.137 3.268 0 1.353-.598 2.512-1.792 3.479-1.194.984-3.013 1.476-5.455 1.476-1.757 0-3.154-.299-4.19-.896-1.036-.58-1.555-1.318-1.555-2.214 0-1.353.914-2.266 2.741-2.741v-.158c-.65-.193-1.16-.518-1.528-.975a2.524 2.524 0 0 1-.527-1.581c0-.562.193-1.08.58-1.555.387-.492.949-.861 1.687-1.107v-.184a4.296 4.296 0 0 1-1.66-1.502 4.058 4.058 0 0 1-.606-2.187c0-1.318.509-2.389 1.528-3.215 1.019-.843 2.319-1.265 3.9-1.265.791 0 1.52.105 2.187.316h4.691v1.476h-1.001zm-7.8 5.323c.474.562 1.115.843 1.924.843s1.449-.281 1.924-.843c.474-.58.712-1.458.712-2.635s-.237-2.056-.712-2.635c-.474-.597-1.115-.896-1.924-.896s-1.449.299-1.924.896c-.474.58-.712 1.458-.712 2.635s.237 2.056.712 2.635zm4.111 6.852-4.454-.211a.823.823 0 0 1-.237-.026c-.843.422-1.265 1.072-1.265 1.95 0 .808.413 1.441 1.239 1.897.825.474 1.976.712 3.452.712 1.318 0 2.337-.211 3.057-.632s1.08-.993 1.08-1.713c0-1.265-.957-1.924-2.872-1.976z"/></symbol><symbol id="icon-close_Icon" viewBox="0 0 32 32"><path stroke-linejoin="round" stroke-linecap="round" stroke-width="5.333" d="M28.444 3.556 3.555 28.445m.001-24.889 24.889 24.889"/></symbol><symbol id="icon-indiebound-logo" viewBox="0 0 32 32"><path d="M23.19 18.145c.059.196-.231.211-.088.422.191-.025.098-.265.25-.314-.029-.123.064-.157.054-.265-.088.039-.147.103-.216.157zM24.025 17.085c-.103-.01-.118.108-.069.157.074-.015.093-.069.069-.157zM22.994 19.102c.005.025-.005.039-.01.059.039.034.079-.01.083-.049-.025-.005-.039-.025-.074-.01zM23.396 17.782a.121.121 0 0 0 .025.162c.118-.01.162-.074.162-.172-.044-.044-.088.01-.186.01zM24.991 12.255c.231-.01-.029-.206 0 0zM23.607 17.679c.093 0 .137-.039.113-.128-.079-.025-.152.025-.113.128z"/><path d="M26.626 15.043c-.157.221-.216.52-.378.741-.152.648-.525 1.129-.736 1.737a.498.498 0 0 1-.103.054c-.133.334-.368.589-.481.937-.407.555-.658 1.198-1.026 1.777-.083.133-.186.236-.265.373-.241.422-.506.888-.8 1.301-.353.496-.545.805-.947 1.217-.108.113-.221.241-.358.348-.005-.123.118-.147.152-.245-.02-.231.245-.319.162-.545.152-.177.005-.221.152-.398.039-.044.079-.206.108-.236.182-.108.285-.157.211-.402.162-.029.123-.26.157-.339.113-.118.147-.29.319-.363.01-.083-.044-.088-.059-.142.162-.196.324-.398.388-.668.29-.147.255-.535.491-.717.015-.363.358-.476.344-.864.049-.029.098-.054.157-.079.02-.025.005-.083 0-.128.137-.079.123-.265.27-.334.191-.54.594-.918.756-1.477.054-.025.079-.074.137-.093.01-.054.005-.113.015-.167.162-.186.304-.388.353-.663.304-.27.388-.702.697-.972 0-.059.044-.088.034-.152.226-.206.334-.496.466-.771.044-.054.113-.088.147-.152.02-.005.034 0 .039.015-.069.52-.363.864-.402 1.404zm-4.56 6.287c-.02-.255.186-.476.211-.751.034-.074.103-.118.118-.201.083.329-.245.633-.329.952zm.53-1.355a.632.632 0 0 1-.157.339c-.039-.103.054-.255.098-.348.029-.01.034.01.059.01zm.054-.269c.039.029.025.157-.054.157-.059-.074 0-.123.054-.157zm-1.178 1.742c-.128-.074-.015-.27.083-.329.034-.236.196-.383.226-.623.201-.118.152-.427.348-.55.034-.211.206-.324.196-.564.167-.113.123-.388.304-.486-.064-.186.123-.191.118-.334.064.005 0 .147.098.152-.152.079-.147.27-.285.353.015.255-.074.432-.26.535a.3.3 0 0 1-.113.255c.005.074.054.083.059.157-.182.123-.353.339-.285.599-.152.103-.285.221-.25.461-.157.069-.186.236-.241.373zm-.098-.8c-.069-.137-.015-.241.049-.324.01-.074-.064-.049-.054-.123.128-.172.324-.299.388-.52l.108-.015c-.191.309-.28.687-.491.982zm1.252-2.812c.02-.034.029-.079.079-.083.015.054-.034.069-.079.083zm-1.414.755c.098-.628.52-1.016.643-1.629.221-.221.255-.574.442-.825.005-.074-.005-.064-.02-.147.388-.535.594-1.212 1.016-1.723l.054-.01c.034.167-.133.182-.059.378-.201.25-.324.555-.412.893-.334.422-.393 1.06-.717 1.492-.01.334-.299.54-.29.839-.152.172-.285.358-.466.51-.015.103 0 .231-.133.241a.06.06 0 0 0-.059-.02zm-.221-1.32c-.074-.137.177-.236.02-.393.147-.324.29-.648.353-1.031.221-.363.442-.731.702-1.065.079.079-.103.221-.142.314.034.128-.029.182-.034.285-.157.054-.108.265-.25.334-.01.344-.27.501-.27.854-.157.206-.177.52-.378.702zm.03 4.147c-.079-.074-.108-.211-.098-.299l.074-.01c.034.074.029.221.025.309zm-.241 1.723c-.049-.093-.108-.177-.118-.319.074-.069.211-.196.319-.103-.088.128-.093.314-.201.422zm-.206-6.091c.034-.103.133-.216.103-.309.128-.118.054-.28.118-.461.025-.064.123-.133.157-.206.059-.137.098-.25.069-.407.221-.398.079-.422.329-.8l.015.093c.025-.079.133-.098.098-.216-.025-.049-.059.02-.088.015a.36.36 0 0 1 .064-.196c.039-.01.02.064.029.088.079.005.054-.069.142-.059.01.113-.088.152-.054.285.186-.025.137-.221.255-.294.01-.069-.054-.044-.054-.103.088 0 .108-.182.025-.206.059-.059.133-.133.059-.25.02.01.044.015.074.01-.064-.118-.01-.103-.015-.241-.167.083-.196.265-.275.412.01.059.069.054.133.034-.005.079-.069.108-.083.177-.098-.088-.147.049-.231.069-.083-.123.103-.137.02-.26.059 0 .083-.025.123-.034.039-.25.167-.437.28-.633.054-.02.044.044.098.025.059-.025.079-.147.025-.206-.069.015-.059.088-.093.123-.064 0-.049-.108-.108-.113-.196.137-.28.363-.319.618-.074.015-.083.079-.133.113-.255.815-.373 1.114-.623 1.934-.049.01-.039.069-.079.083-.01.216-.231.559-.265.756-.182-.049.025-.648-.162-.731-.152-.491.182-.559.211-1.016.177-.265.236-.285.309-.623.304-.491.481-1.075.8-1.561-.01-.083.029-.128.005-.221.069-.059.118-.128.177-.191-.029-.098.054-.113.049-.191a2.05 2.05 0 0 0 .481-.937c.147-.147.255-.437.388-.668.069-.118.186-.152.157-.339.054-.005.064-.049.103-.069.137-.358.319-.682.55-.967 0-.206.236-.236.191-.471.157-.226.309-.461.456-.697-.015-.064.005-.103.015-.152.186-.103.255-.294.319-.491.618-.098.402.501.402.888-.054-.01-.044.034-.088.029.044.27-.221.393-.133.648-.093.083-.226.201-.133.373-.074.049-.113.123-.182.172l.02.128c-.206.285-.314.638-.476.957.005.029 0 .069.029.069-.054.093-.137.167-.206.25-.015.304-.245.447-.309.712.005.137-.01.25-.044.358-.113.015-.245-.083-.329.029.025.059.093.054.142.074-.088.52-.353.903-.555 1.34-.128-.113.015-.358-.162-.476a.425.425 0 0 0-.28.26c.015.069.093.034.054.123.054-.01.108.02.172.049.064.191-.098.275.01.447-.118.201-.157.466-.378.594-.108.231-.28.417-.393.648-.054.02-.069-.01-.113-.005.02.245-.393.29-.221.55-.319.618-.368.726-.55 1.448-.064-.02-.074-.123-.123-.177zm-.417 1.463a1.016 1.016 0 0 1-.741.304c-.285 0-.53-.103-.736-.309s-.309-.452-.309-.736c0-.29.103-.54.304-.741s.452-.304.741-.304c.29 0 .54.103.741.304s.304.452.304.741c0 .294-.098.54-.304.741zm-1.34-3.347c.049.093-.029.196-.054.285-.029-.049-.074-.079-.108-.113.005-.088.039-.226.162-.172zm.574.368-.01-.074c.064-.025.079.074.01.074zm2.121-3.343c-.005.034-.123.093-.113-.005.044-.01.088-.015.113.005zm-2.018 2.656c.02-.373.368-.559.29-.952.285-.29.299-.785.589-1.065.142-.309.334-.584.422-.932.245-.196.265-.559.506-.756.358-.712.869-1.306 1.301-1.963.064-.005.059-.064.118-.074.236-.412.599-.731.923-1.075.064.01.015.034.029.088-.304.147-.29.53-.53.726l.02.128c-.157.128-.319.334-.294.545-.093 0-.118.049-.172.079-.034.339-.373.447-.368.815-.167.083-.28.201-.236.442-.133.083-.113.285-.285.339-.015.059.005.064.02.128-.265.309-.447.682-.653 1.036.044.182.108.398.025.555-.069.005-.059-.093-.157-.054-.025.01-.025.034-.049.044.255.368-.373.427-.334.79-.02.039-.083.044-.118.074.005.044.039.049.034.108-.191.079-.191.285-.152.506-.133.088-.28.157-.245.368-.054.02-.044-.044-.098-.025-.049.113.049.187.088.245-.074.02-.088.098-.177.064-.01.079.015.142.02.255-.064.069-.196.079-.216.177.01.054.054.054.069.103-.074.074-.069.211-.231.216.039-.27-.123-.471-.226-.672.034-.093.005-.221.088-.26zm3.063-.246c.005.079-.059.162-.108.147-.005-.079.059-.167.108-.147zm-.005-.054c.005-.177.034-.334.186-.398.083-.299.29-.51.471-.736.029-.01.034.01.044.029-.093.28-.353.427-.398.741-.133.103-.167.27-.304.363zm2.498-7.882-.015-.108c.093-.01.088-.088.128-.128-.005-.059-.059-.054-.054-.123.069-.015.113.059.167-.005.064-.044.029-.074.015-.152.196-.059.172-.285.358-.348-.02-.054.025-.069 0-.128.128-.088.236-.191.245-.368a.454.454 0 0 0 .245-.221c-.01-.079-.064-.113-.044-.182.029-.049.093.02.123-.034.034-.029.029-.088.034-.137.103-.049.177-.118.191-.231.186-.083.294-.221.393-.373.182-.005.206-.167.378-.088-.044.133-.128.309-.064.471a.541.541 0 0 0-.196.564c-.221.265-.28.658-.456.957-.005.059.039.049.034.108-.152.108-.128.348-.167.545-.196.118-.231.358-.27.594-.083.034-.044.108-.083.177-.02.029-.083.044-.098.088-.039.103-.025.245-.064.344-.025.064-.103.103-.123.167-.039.113-.034.191-.088.309-.108.245-.226.525-.255.834a.22.22 0 0 0-.128.128c-.034.584-.476.864-.476 1.477-.275.275-.241.785-.579 1.011-.01.088.059.064.059.142-.049.025-.049-.02-.093-.005-.172.28-.447.476-.574.785-.074.029-.123.083-.206.103-.015.221-.157.348-.324.456-.005-.093.069-.133.123-.187-.039-.255.196-.304.142-.574.088-.044.113-.133.216-.162.005-.221.133-.358.064-.584l.093-.015c.103-.177.255-.319.275-.559.044-.005.054-.034.088-.049-.069-.304.299-.496.241-.795.314-.142.069-.638.432-.766-.069-.353.182-.471.167-.785.054-.093.167-.226.186-.398.015-.147-.039-.319-.029-.461.005-.074.083-.182.074-.25-.015-.191-.231-.177-.236-.358a.26.26 0 0 0-.216-.098c.108-.201.167-.452.368-.589zm-.834 7.588c.069-.02.108 0 .152.015-.039.152-.191.226-.265.353.015.025.034.044.049.069-.118.231-.275.432-.388.668-.049.02-.044-.029-.079-.025.069-.113.079-.319.02-.393.059.02.093-.01.142-.039.079-.245.285-.398.368-.648zM23.131 16.8c.005-.054.005-.103.079-.103l.01.074c-.02.02-.049.029-.088.029zm1.571-2.002c.314-.187.52-.452.731-.717.398-.26.668-.614 1.227-.751 0 .025.005.054.025.054-.088.241-.324.373-.353.663-.236.339-.51.643-.668 1.04-.034.02-.079.039-.103.069-.005.079.015.074.005.147-.324.226-.368.668-.609.957-.064.015-.074-.044-.133-.034-.079.029-.049.137-.172.098-.147.226-.383.383-.569.579.005.054.029.088.069.103.147-.069.221-.191.393-.241-.29.746-.751 1.364-1.075 2.081a.59.59 0 0 0-.137.221c-.044.025-.059.074-.118.088-.01.172-.074.304-.206.383-.005-.034-.054-.015-.049-.069.02-.083.162-.074.162-.172-.015-.054-.044-.083-.088-.098-.152.142-.196.358-.358.496-.01-.113.123-.177.029-.299.157-.098.196-.285.27-.447.079-.025.049.093.123.074.034-.074.118-.108.162-.172 0-.059-.034-.074-.069-.083-.098-.005-.064.093-.133.113-.083-.093.064-.128.02-.245-.059-.049-.088.064-.182.044.015-.133.083-.221.079-.363 0-.069-.088-.025-.118-.059-.01-.098.059-.034.108-.034a.435.435 0 0 0 .098-.368c.137-.133.142-.358.182-.564.236-.319.314-.761.491-1.129.083-.069.123-.167.123-.294.196-.417.658-.643.844-1.07zm-6.7 3.793c-.123-.182-.28-.319-.373-.54-.216-.152-.123-.285-.353-.417-.236-.579-.712-.839-.913-1.468-.02-.039-.064-.049-.103-.059-.039-.466-.196-.79-.461-1.045.172-.275-.265-.378-.162-.628-.093-.079-.157-.167-.118-.314-.025-.074-.079-.108-.147-.128.005-.231-.157-.383-.187-.55.28.142.452.422.712.584l.015.093c.589.481.957 1.261 1.418 1.914a.81.81 0 0 0 .265.447l.02.128c.196.172.083.324.241.545.01.353.329.869.152 1.202.044.079.025.162-.005.236zm-.834-.392a8.533 8.533 0 0 1-.466-.658c-.049-.074-.044-.147-.034-.255.324.294.51.775.82 1.09.005.059.044.074.039.142.093.103.196.196.221.393-.236-.157-.378-.447-.579-.712zm.501 4.049c-.113-.015-.177-.093-.216-.211.133-.01.191.079.216.211zm.196.633c.025.128.049.128.034.25-.241-.054-.373-.25-.535-.402.191-.103.294.177.501.152zm-1.531-4.903c.486.334.721.996.957 1.664a10.343 10.343 0 0 1-.957-1.664zm-.216 1.948c.177-.02.221-.137.28-.245-.064-.088-.118.059-.186.01-.015-.064.079-.049.059-.118-.098-.108-.196-.28-.368-.226.049-.206-.142-.491-.309-.604-.02-.069.039-.079.015-.152-.029-.059-.147-.005-.206-.025-.049-.064.029-.196-.098-.172.015-.133-.054-.285-.172-.309-.275-.648-.618-1.207-.879-1.88.221.088.299.363.496.486.177.486.506.771.771 1.134.069.275.216.452.383.594.167.456.506.687.618 1.212.069.093.147.241.069.363a.996.996 0 0 1 .339.545c-.044.049-.079-.044-.133-.034-.034.044-.049.113-.015.167.079.034.108-.029.157-.059.064.186.206.363.27.609-.442-.329-.844-.707-1.09-1.296zm-.059-.157c-.088-.005-.133-.069-.137-.186.079-.02.103.039.172.029.015.074-.025.103-.034.157zm-.967-.142c.059-.01.123-.02.118.059-.059.005-.118.015-.118-.059zm-.407-.535c-.103 0 .015-.162-.064-.196.044-.059.137.147.064.196zm-.251-.299c.005-.029.02-.049.025-.079.064 0 .054.088-.025.079zm.864-1.772c-.059-.005-.098-.029-.108-.098.059.005.098.029.108.098zm.442.643c-.113-.182-.265-.309-.353-.525.187.069.319.324.353.525zm-1.787-2.42c-.025-.201-.167-.241-.255-.353.029-.083-.059-.172.005-.241-.103-.083-.196-.275-.093-.393-.113-.226-.216-.555-.172-.81a4.527 4.527 0 0 1-.226-.82c-.029-.172-.206-.339-.093-.525 0-.108-.054-.147-.069-.231.069-.123-.029-.275-.034-.383.093-.329.491-.221.756-.162.02.059.069.079.108.113-.034.236.128.398.069.618a1.289 1.289 0 0 0-.314.285c.216.78.535 1.428.815 2.071.059.083.172.088.26.133-.015.059-.025.123-.069.157.226.353.393.756.506 1.094-.054.191.054.432.167.535.02.26.177.329.191.55-.093-.049-.191-.103-.167-.255-.044-.123-.216-.074-.299-.142-.044-.088-.025-.255-.147-.241.01-.039.049-.064.039-.118-.039-.054-.133-.039-.177-.088.049-.187-.152-.152-.236-.226-.025-.059.015-.074 0-.128-.039-.059-.113-.069-.196-.064-.069-.206-.25-.245-.368-.378zm-.063 1.659c-.01-.015-.025-.025-.025-.054a.119.119 0 0 1 .069-.029c.015.049.005.083-.044.083zm-.187-.53c-.039-.01-.083-.044-.049-.083.039.01.074.054.049.083zm-.177-.344c-.039-.054-.074-.108-.147-.108-.054-.275-.28-.319-.309-.623-.231-.088-.226-.496-.422-.628l-.128.02c.01-.147-.039-.353-.167-.383.029-.157-.093-.27-.226-.285-.034-.059.069-.098 0-.128.039-.064.098.029.152.015.054.187.172.29.344.324.201.334.471.584.731.844-.01.393.294.815.299 1.198-.029-.025-.054-.059-.103-.059l-.025-.186zm.953-3.101c.137.059.147.294.211.452-.064-.147-.25-.309-.211-.452zm.22.505c.029.025.049.064.054.123-.044-.01-.088-.079-.054-.123zm.315-.77c-.069-.074-.187-.083-.245-.167.044-.157-.059-.236-.167-.255.005-.069.088-.162.025-.226.064-.039.172.044.25.059.039.182.226.241.329.363.133.152.187.398.417.442.172.231.339.471.54.668.02.025.049.034.098.025a.382.382 0 0 1 .005.167c-.26-.029-.29-.358-.54-.407-.074-.221-.255-.294-.427-.383a.336.336 0 0 0-.304-.196c.02-.025-.01-.079.02-.088zm-2.062-1.468c-.029-.172.039-.461-.079-.545.074-.088.01-.177.01-.314-.005-.079-.108-.029-.108-.113.088-.01.118-.226-.01-.201.079-.093.113-.285.015-.412-.02-.069.049-.074.059-.118-.147-.285.098-.476-.039-.79.064-.054.088-.142.118-.221-.005-.054-.01-.098-.069-.083.137-.324.447-.034.702-.025.069.191.236.245.304.437.339.216.452.736.8.942.005.049 0 .088-.02.113.108.088.285.241.226.412.353.26.383.795.721 1.045-.01.044-.044.079-.059.118.02.064.074.088.113.133.196.52.545 1.016.746 1.6-.206 0-.142-.358-.412-.275.005-.216-.118-.373-.329-.363-.059-.074.015-.093-.01-.187a.608.608 0 0 0-.393-.294c-.049-.147-.137-.236-.309-.216-.054-.039.015-.059.005-.113-.083-.074-.152-.172-.285-.182-.039-.157-.177-.182-.309-.216-.083-.177-.25-.241-.432-.29-.069 0-.079.049-.098.088-.236-.128-.604-.083-.859.069zm3.578 2.886c-.059-.025-.147-.01-.147-.108.083-.005.147.01.147.108zm.093.137c.025.079-.088.079-.074-.01.034-.005.044.02.074.01zm-4.613 4.197c-.015-.054.005-.083.064-.083l.01.074-.074.01zm1.006-.368c-.02-.029-.059-.039-.054-.103l.147-.02c.025.083-.025.113-.093.123zM27.391 4.088c-.083-.005-.137-.044-.152-.147.074.015.162.093.152.147zm-.152 7.441c-.064-.02-.142-.025-.196-.064.039-.029.088-.054.054-.137-.182-.069-.437-.034-.594-.137-.177.118-.452.079-.672.113-.01.216-.265.245-.329.417-.015-.025-.044-.029-.079-.025-.025.025.005.088-.044.098-.069.01-.064-.069-.152-.034-.039.123-.172.172-.177.324.177.059.265-.206.486-.216.025-.034.029-.088.059-.118.255-.103.432-.26.717-.304.883-.147.952.839.795 1.556-.079-.25-.378-.241-.486-.025a.58.58 0 0 0-.206-.025c-.108.118-.319.162-.363.329-.241.079-.324.28-.501.402-.059.015-.103.01-.147.005-.118.236-.348.388-.491.609-.025-.02-.069-.01-.113-.005-.02.157-.172.216-.25.334-.049-.02-.113-.02-.142-.074.093-.103.059-.304.147-.412.005-.069-.049-.064-.054-.123.074-.128.167-.28.054-.417-.245.005-.201.226-.344.309 0 .108.113.064.118.167-.079-.005-.069-.064-.152-.015-.015.108-.015.226-.152.245-.039 0-.044-.044-.064-.064.015-.172.172-.241.098-.476.236-.344.324-.795.564-1.139.177-.049.177-.236.329-.304-.005-.088-.074-.088-.079-.172.098-.304.319-.515.358-.869a.605.605 0 0 0 .142-.059c-.015-.064-.034-.064-.02-.128.216-.172.373-.466.314-.785-.211-.01-.255.133-.447.118.005-.064.039-.103.01-.187a.657.657 0 0 0 .167-.393c.231-.491.373-1.055.638-1.517.015-.314.137-.545.28-.761 0-.216.142-.329.206-.491-.044-.177.025-.26.118-.334.005-.044.015-.088-.005-.147.206-.191.157-.574.334-.79-.01-.255.133-.398.236-.569-.015-.074.01-.123.01-.186.064-.034.103-.088.147-.133.02-.407.265-.643.236-1.09-.015 0-.025-.015-.025-.034-.314-.108-.574-.088-.78.108-.064.064-.083.162-.152.226-.118.108-.265.157-.373.255-.005.034 0 .079-.025.098-.059.029-.113.064-.172.098-.049.206-.191.344-.319.491.01.304-.285.383-.442.564l.015.093c-.275.28-.555.638-.775.942a.873.873 0 0 0-.152.353c-.147.049-.152.25-.211.329-.098.128-.373.201-.452.344-.162.025-.245.108-.368.162-.01.054-.029.098-.034.152a.413.413 0 0 0-.162.172c-.255.093-.226.393-.51.461-.186.275-.358.564-.672.746.005.059-.029.088-.015.152-.334.275-.432.726-.746 1.016-.098.363-.383.589-.579.879-.098.422-.432.672-.594 1.05l.02.128c-.074.128-.231.191-.226.383-.113.079-.157.206-.172.358-.201.201-.309.471-.353.79-.142.079-.137.265-.245.368-.005.069.069.103 0 .128-.186-.054-.201-.339-.452-.304-.059.015-.054.079-.118.088-.054-.005-.059-.079-.137-.054-.186.182-.074.447-.049.692.02.221-.02.486-.01.726.01.167.098.324.01.461-.358-.584-.702-1.252-1.05-1.782-.02-.373-.348-.697-.393-1.075-.034-.044-.157.029-.167.005.015-.059.103-.064.093-.142-.088-.044-.044-.128-.074-.25-.098-.074-.157-.196-.226-.299.005-.044.064-.049.039-.118-.133-.118-.123-.339-.314-.402.015-.206-.054-.466-.241-.52.01-.054.039-.103.01-.187-.025-.034-.074-.034-.103-.059-.025-.059.015-.074 0-.128-.27-.329-.388-.849-.697-1.124-.005-.044.025-.059.005-.113-.172-.167-.216-.373-.329-.604-.079-.029-.147-.064-.216-.098-.152-.481-.471-.741-.682-1.144-.108.005-.142-.098-.221-.137-.039-.044-.079.049-.142.039-.025-.049.02-.049.005-.093-.088-.039-.196-.054-.304-.069a.52.52 0 0 1-.422.152c-.064.147-.255.196-.26.388.039.059.088-.02.133.02-.034.059-.02.162-.064.211-.015-.059-.039-.108-.108-.098-.079.064-.015.137.044.182-.044.103.025.29-.123.314.039.152-.118.196-.054.417.025.054.098.039.123.093-.054.044-.137.074-.123.167.049.025.074.074.093.137-.005.049-.079.049-.098.088-.029.196.069.461-.025.614.162.123.245.515.133.687.133.147-.059.353.118.447-.118.093-.088.29-.142.427.255.26.142 1.006.348 1.413-.044.142.074.358.074.51-.128-.064-.211-.182-.299-.29-.069-.005-.118.093-.182.044.01-.069.074-.093.069-.177-.241-.442-.672-.628-.898-1.094-.152-.039-.216-.187-.27-.353-.093-.02-.152-.088-.206-.157-.118.044-.147.02-.241-.005-.265.373.324.633.324.991.039.025.093.039.108.098.172.393.407.702.579 1.085.034.034.074.059.108.098.029.25.226.28.245.54.196.142.241.486.442.623.074.304.28.437.348.746.157.088.216.299.324.456.02.324.314.402.319.677-.103-.074-.221-.123-.28-.255-.25.049-.309-.147-.476-.211 0-.358-.452-.221-.687-.128.029.113.108.157.196.196.064 0-.005-.098.039-.118.118.064.241.103.373.152.29.103.574.417.82.535.034.02.083 0 .113.02.015.01.02.074.054.103.113.103.26.079.201.25.128.186.324.393.368.618-.304-.025-.353-.304-.545-.442-.083.025.044.113-.034.133-.02-.123-.142-.113-.133-.28-.029-.02-.083-.005-.133 0-.005-.034.044-.029.025-.079-.182-.049-.221-.285-.447-.27-.005-.093-.074-.103-.098-.172-.103.049-.206-.005-.226.108-.069-.01-.079-.098-.113-.152.029-.025.083-.034.059-.103-.128-.025-.201-.191-.211-.304-.128.054-.177.083-.344.069-.034.044.044.093-.02.133-.069-.064-.098-.177-.113-.26-.02 0-.049.01-.059-.01-.103.044-.083.142-.142.186.088.147.299.133.344.339.167.064.304.167.432.29-.029.118.074.191.147.241-.005.039-.039.059-.02.113.069.054.098.157.113.28.044.049.093.093.133.147l.015.108c.162.093.25.476.461.363-.098-.142-.285-.211-.25-.466-.054-.029-.133-.025-.162-.088.005-.113.162-.005.167-.118a.38.38 0 0 1-.29-.201c.329-.098.535.152.712.324.059 0 .152-.044.167.015.015.074-.02.108.025.162.069.005.133.025.206.025.064.098.074.152.098.285.02.049.098.029.123.074.064.196.231.255.368.358-.029.039.005.044.015.088.133.064.206.201.319.29.133.373.559.535.726.937.299.26.491.658.766.947.01.074.103.152.069.211-.329-.147-.677-.265-.913-.54-.064-.236-.27-.29-.427-.402-.108-.206-.26-.344-.422-.476-.133-.476-.525-.613-.717-1.011-.083-.029-.162-.059-.206-.137.015-.034.093-.025.059-.103 0-.054-.098.029-.098-.025.034-.118-.049-.245-.196-.196.015.098-.113.147-.113.241 0 .211.172.182.265.294.034.044.029.108.059.157.142.221.407.363.432.55.069.02.167.108.123.206-.422-.226-.692-.653-1.109-.883-.28-.319-.55-.653-.903-.874-.137-.368-.501-.432-.648-.78-.034-.025-.088-.029-.118-.059-.167-.236-.353-.452-.584-.604-.025-.142-.088-.231-.201-.25-.059.039 0 .162-.064.196-.098-.088-.02-.196-.005-.294.123-.02.211.005.339.025.177.201.471.196.692.29.093-.137-.025-.29-.079-.417-.162.025-.196-.113-.285-.182-.196.015-.412-.182-.648-.113-.083-.074-.201-.103-.299-.162-.152.069-.324.083-.491.201-.029.044.005.133.01.201.133.054.191.201.363.206.093.049-.044.108.025.182.015.054.098.01.118.059-.034.137.123.172.216.211.025.074-.015.098.005.167.128.034.177.172.275.241.059.01.029-.054.064-.064.015-.069-.108-.069-.054-.123a.647.647 0 0 1 .29.461c.079.044.191.049.27.093-.015.059-.074.088-.049.172.137.049.191.265.393.167a.507.507 0 0 0 .123.226c-.025.172.064.26.25.206.152.064.211.25.358.319l.015.108c.049.025.128.015.142.093-.005.074-.083.118-.029.191.079.025.133-.039.206.01-.059.186.177.28.285.182.118.025.157.157.113.28.049.123.216.083.241.245.167.064.368.088.417.314l.147-.02c.049.098.118.172.187.25.103.005.098-.079.177-.044.064.074-.049.157.034.236.088.01.069-.069.157-.059-.088.211.152.334.314.27.294.388.702.623 1.06.928.025.02.029.059.034.108.442.412.986.692 1.468 1.055l.02.128c.083.059.137.162.191.255h.466a.305.305 0 0 0 .304-.304v-2.439a.305.305 0 0 0-.304-.304h-.589a.305.305 0 0 1-.304-.304v-.859c0-.167.137-.304.304-.304h2.307c.167 0 .304.137.304.304v3.907c0 .167.137.304.304.304h.506c.167 0 .304.137.304.304v.103c.088-.069.118-.182.206-.265.044-.005.049-.039.108-.034.373-.412.672-.883 1.041-1.296.083 0 .103-.054.157-.079.054-.177.147-.324.206-.491.348-.064.26-.456.51-.589.059-.285.245-.476.402-.687-.005-.177.133-.358.309-.452-.029-.216.26-.294.196-.584.108-.049.137-.157.25-.201-.005-.177.083-.285.186-.378-.074-.157.054-.206.147-.28.025-.206.177-.309.167-.545.407-.137.294-.604.628-.795.039-.28.167-.496.29-.707-.01-.044-.039-.064-.034-.123.113-.177.216-.358.314-.545-.01-.059-.064-.064-.059-.142.064-.025.083.02.147 0 .039-.147.064-.299.167-.393-.005-.088-.128-.015-.113-.133.059-.015.083.02.147-.005.039-.152.083-.294.142-.427-.01-.064-.064-.074-.074-.137a.205.205 0 0 1 .147-.133l-.02-.147c.182-.299.255-.672.334-1.05-.074-.108.049-.191-.025-.294.113-.113.226-.275.098-.476.103-.044.025-.221.069-.304-.064-.353-.221-.604-.29-.942z"/><path d="M22.017 13.139c.157-.034.236-.353.054-.398-.088.113-.044.236-.054.398zM16.555 20.142c.044-.196-.226-.015 0 0zM22.002 13.158c-.044.02-.025.088-.015.152.098.01.103-.157.015-.152zM22.709 12.393a.142.142 0 0 0-.093-.005l.015.093c.069 0 .064-.054.079-.088zM22.047 13.615l-.054.01c-.015.025-.015.054-.005.093.069.005.079-.039.059-.103zM16.564 20.216c-.029.083.01.241.108.226.049-.049.064-.128.064-.211-.034-.034-.098-.029-.172-.015zM21.556 15.112c.064-.025.015-.128-.034-.123-.034.025-.054.147.034.123zM4.245 21.109h.535v3.357h-.535v-3.357zM7.215 24.466l-.962-1.605-.344-.613v2.218h-.506v-3.357h.412l.937 1.629.329.618v-2.248h.506v3.357zM9.816 22.15c0-.353-.172-.564-.55-.564h-.52v2.4h.52c.378 0 .55-.211.55-.559v-1.276zm-.506 2.316H8.211v-3.357H9.31c.717 0 1.04.442 1.04.986v1.379c-.005.545-.324.991-1.04.991zM10.92 21.109h.535v3.357h-.535v-3.357zM12.083 24.466v-3.357h1.811v.476h-1.276v.883h.918v.452h-.918v1.065h1.276v.481z"/><path d="M12.442 26.753c0-.29-.142-.432-.417-.432h-.564v1.041h.623c.27 0 .358-.162.358-.368v-.241zm-.03-1.482c0-.211-.079-.373-.358-.373h-.594v1.006h.535c.275 0 .417-.147.417-.427v-.206zm-.333 2.538h-1.158v-3.357h1.129c.663 0 .888.329.888.825v.128c0 .398-.172.609-.501.672.378.064.545.314.545.682v.226c0 .496-.241.825-.903.825zM15.092 25.418c0-.344-.172-.584-.55-.584-.373 0-.545.241-.545.584v1.423c0 .344.172.584.545.584.378 0 .55-.241.55-.584v-1.423zm-.545 2.474c-.751 0-1.085-.466-1.085-1.09v-1.35c0-.613.334-1.085 1.085-1.085.756 0 1.085.466 1.085 1.085v1.35c-.005.623-.329 1.09-1.085 1.09zM17.281 27.892c-.633 0-1.085-.353-1.085-.972v-2.469h.54v2.459c0 .344.172.53.545.53.378 0 .55-.186.55-.53v-2.459h.535v2.469c0 .618-.442.972-1.085.972zM20.795 27.809l-.962-1.605-.344-.613v2.218h-.506v-3.357h.417l.937 1.634.324.613v-2.248h.506v3.357zM23.396 25.497c0-.353-.172-.564-.55-.564h-.52v2.4h.52c.378 0 .55-.211.55-.559v-1.276zm-.505 2.312h-1.099v-3.357h1.099c.717 0 1.041.442 1.041.986v1.379c0 .55-.324.991-1.041.991zM24.265 25.026v-.447h-.162V24.5h.417v.079h-.162v.447h-.093zm.442-.427zm.397.427v-.427h-.005l-.167.427-.324-.525h.142l.152.388.147-.388h.142v.525h-.088zM24.437 27.475h-.29v.358h.29v-.358zm1.227-.069v-.412c0-.28-.182-.452-.447-.452-.27 0-.452.172-.452.452v.407c0 .28.182.447.452.447.265.005.447-.162.447-.442zm-.304.059c0 .088-.054.152-.137.152-.088 0-.142-.059-.142-.152v-.525c0-.088.054-.152.142-.152.083 0 .137.059.137.152v.525zm1.187-.594v-.314c-.182-.044-.314.034-.373.26l-.02-.25h-.265v1.261h.319v-.79c0-.118.088-.206.339-.167zm1.149-.334c0-.025 0-.054-.01-.113h-.226c0 .088-.025.147-.152.147-.025 0-.083-.025-.182-.025-.25 0-.442.177-.442.398v.01c0 .147.069.285.191.334-.123.015-.211.118-.211.211 0 .083.054.162.172.201-.128.039-.191.128-.191.221v.025c0 .186.216.314.506.314.319 0 .501-.172.501-.393v-.02c0-.201-.137-.334-.466-.334-.206 0-.265-.029-.265-.083 0-.044.039-.088.108-.088.025.005.079.01.108.01.275 0 .447-.157.447-.383v-.025a.317.317 0 0 0-.123-.25c.039.02.069.025.098.025.069-.015.137-.074.137-.182zm-.422.452c0 .083-.054.152-.147.152s-.147-.069-.147-.152v-.069c0-.088.054-.152.147-.152s.147.064.147.152v.069zm.088.893c0 .083-.064.142-.216.142-.147 0-.221-.059-.221-.137v-.025c0-.083.069-.133.221-.133.162 0 .216.049.216.128v.025z"/></symbol><symbol id="icon-Bookshelf" viewBox="0 0 178 32"><path d="M22.176 8.533c0-4.731-3.497-7.406-9.545-7.406H0v29.417h13.33c6.089 0 9.998-2.921 9.998-8.599 0-4.402-2.633-6.665-5.719-7.2v-.082c2.427-.823 4.567-2.51 4.567-6.13zm-17.28 4.772V5.282h7.858c2.921 0 4.526 1.44 4.526 4.032s-1.317 3.991-4.814 3.991h-7.57zm0 3.662h8.599c3.086 0 4.937 1.687 4.937 4.69 0 2.757-1.275 4.731-5.472 4.731H4.896v-9.422zM35.89 31.161c-6.583 0-10.574-4.567-10.574-11.109S29.307 8.943 35.89 8.943s10.574 4.567 10.574 11.109-3.991 11.109-10.574 11.109zm0-3.538c4.114 0 6.254-3.25 6.254-7.57 0-4.361-2.139-7.57-6.254-7.57s-6.254 3.209-6.254 7.57c0 4.32 2.139 7.57 6.254 7.57zM58.912 31.161c-6.583 0-10.574-4.567-10.574-11.109S52.329 8.943 58.912 8.943s10.574 4.567 10.574 11.109-3.991 11.109-10.574 11.109zm0-3.538c4.114 0 6.254-3.25 6.254-7.57 0-4.361-2.139-7.57-6.254-7.57s-6.254 3.209-6.254 7.57c0 4.32 2.139 7.57 6.254 7.57zM72.472 1.127v29.417h4.32v-7.611l2.921-2.757 6.624 10.368h5.184l-8.846-13.207 7.982-7.817H85.35l-8.558 8.434V1.127h-4.32zM101.935 17.831c-3.045-.699-5.39-.864-5.39-3.003 0-1.481 1.399-2.469 3.991-2.469 3.374 0 4.197 1.687 4.485 3.333h4.197c-.288-3.662-3.003-6.747-8.722-6.747-5.266 0-8.311 2.757-8.311 6.213 0 4.773 4.526 5.431 7.858 6.213 3.086.741 5.595.946 5.595 3.579 0 1.317-1.275 2.798-4.279 2.798-4.443 0-5.431-1.934-5.637-4.197h-4.197c.206 4.443 3.127 7.611 9.915 7.611 5.102 0 8.558-2.51 8.558-6.542 0-5.019-4.197-5.883-8.064-6.789zM124.123 8.944c-3.538 0-5.719 1.646-6.83 3.291h-.082V1.126h-4.32v29.417h4.32V17.748c0-3.127 2.263-5.143 5.431-5.143 3.003 0 4.197 1.81 4.197 4.649v13.289h4.361V16.02c0-4.814-3.086-7.077-7.077-7.077zM144.448 27.623c-3.826 0-6.089-2.921-6.089-6.459h16.128c0-7.488-3.333-12.219-10.121-12.219-6.336 0-10.327 4.279-10.327 11.109 0 6.583 3.991 11.109 10.533 11.109 5.39 0 8.517-3.045 9.586-7.035h-4.32c-.37 1.275-1.81 3.497-5.39 3.497zm-.082-15.264c3.497 0 5.801 2.345 5.801 5.595h-11.808c0-3.25 2.51-5.595 6.007-5.595zM157.531 1.127v29.417h4.361V1.127h-4.361zM176.003 4.665V1.127a15.12 15.12 0 0 0-2.88-.288c-3.456 0-5.349 1.563-5.349 6.007V9.52h-3.003v3.538h3.003v17.486h4.361V13.058h3.867V9.52h-3.867V7.216c0-2.386 1.07-2.674 3.867-2.551z"/></symbol><symbol id="icon-general-logo" viewBox="0 0 32 32"><path fill="#f6f6f6" style="fill:var(--color1,#f6f6f6)" d="m0 0 16.343 16.171L32 32V0H0z"/><path fill="#f6f6f6" style="fill:var(--color1,#f6f6f6)" d="M4.457 4.229 16.4 16.058l11.257 11.486h-23.2V4.23z"/><path fill="#4f2ee8" style="fill:var(--color2,#4f2ee8)" d="M27.733 27.618 15.79 15.789 4.533 4.303h23.2v23.314z"/><path fill="#4f2ee8" style="fill:var(--color2,#4f2ee8)" d="m9.257 9.029 13.6 13.6h-13.6v-13.6z"/><path fill="#f6f6f6" style="fill:var(--color1,#f6f6f6)" d="m9.257 9.029 13.6 13.6v-13.6h-13.6z"/></symbol><symbol id="icon-bag" viewBox="0 0 32 32"><path d="M25.333 9.333h-4V8a5.332 5.332 0 1 0-10.666 0v1.333h-4a1.335 1.335 0 0 0-1.334 1.334v14.667a4.003 4.003 0 0 0 4 4h13.333a4.003 4.003 0 0 0 4-4V10.667a1.335 1.335 0 0 0-1.334-1.334zM13.333 8a2.668 2.668 0 0 1 5.334 0v1.333h-5.333V8zM24 25.333a1.335 1.335 0 0 1-1.334 1.334H9.333a1.335 1.335 0 0 1-1.334-1.334V12h2.667v1.333a1.335 1.335 0 0 0 2.277.943c.25-.251.391-.589.391-.943V12h5.333v1.333a1.333 1.333 0 1 0 2.667 0V12h2.667v13.333z"/></symbol><symbol id="icon-right_arrow" viewBox="0 0 43 32"><path stroke-linejoin="round" stroke-linecap="round" stroke-width="5.333" d="M3.555 16h35.556m0 0L25.778 2.667M39.111 16 25.778 29.333"/></symbol><symbol id="icon-align-left-purple" viewBox="0 0 32 32"><path fill="none" stroke="#4f2ee8" style="stroke:var(--color1,#4f2ee8)" stroke-linejoin="round" stroke-linecap="round" stroke-width="2.286" d="M22.667 13.333H4M28 8H4M28 18.667H4M22.667 24H4"/></symbol><symbol id="icon-align-left-black" viewBox="0 0 32 32"><path stroke-linejoin="round" stroke-linecap="round" stroke-width="2.286" d="M22.667 13.333H4M28 8H4M28 18.667H4M22.667 24H4"/></symbol><symbol id="icon-trident" viewBox="0 0 20 32"><path d="M9.005 30.888a8.64 8.64 0 0 1-3.414-5.351H0V2.42c2.991 1.443 5.153 4.599 5.388 7.876l.846 6.493-.407-.045c-.893 0-1.676.812-1.676 1.608 0 .752.595 1.383 1.378 1.548l1.018.226c1.676-3.051 2.631-6.042 2.631-8.973 0-2.645-.36-5.291-.423-7.996 0-1.202.486-2.3 1.253-3.156.783.857 1.253 1.954 1.253 3.156 0 2.705-.423 5.351-.423 7.996 0 2.931.955 5.922 2.631 8.973l1.018-.226c.783-.165 1.378-.812 1.378-1.548 0-.812-.783-1.608-1.676-1.608l-.423.06.846-6.493c.423-3.277 2.396-6.448 5.388-7.876v23.117h-5.576c-.423 2.179-1.613 4.148-3.414 5.351-.423.286-.783.631-1.018 1.097-.219-.466-.579-.812-.987-1.112zM2.647 17.556c.235-.857.893-1.608 1.738-2.074l-.658-5.351a8.288 8.288 0 0 0-2.036-4.374v11.784h.955v.015zm2.819 6.373c0-.812.125-1.548.298-2.3l-.783-.18c-1.143-.346-2.036-1.203-2.334-2.3h-.955v4.78h3.774zm3.712 0c0-.977-.783-1.834-1.801-1.954-.172.631-.298 1.263-.298 1.954h2.099zm0 1.623H7.314c.298 1.263.955 2.42 1.864 3.397v-3.397zm2.631-5.005c-.72-1.262-1.378-2.585-1.801-3.968-.423 1.383-1.081 2.706-1.801 3.968.72.165 1.316.631 1.801 1.157.486-.526 1.081-.992 1.801-1.157zm1.143 3.382c0-.691-.125-1.323-.297-1.954-1.018.12-1.801.977-1.801 1.954h2.099zm-.235 1.623h-1.864v3.397c.908-.992 1.566-2.134 1.864-3.397zm5.623-1.623v-4.78h-.955c-.298 1.097-1.206 1.954-2.334 2.3l-.783.18c.172.752.298 1.488.298 2.3h3.774zm0-6.373V5.757c-1.081 1.202-1.864 2.706-2.036 4.374l-.658 5.351c.846.466 1.504 1.203 1.739 2.074h.955z"/></symbol><symbol id="icon-show_more_arrow" viewBox="0 0 32 32"><path d="M15.053 17.867a1.334 1.334 0 0 0 1.894 0l6.107-6.12a1.334 1.334 0 1 1 1.894 1.88l-6.12 6.12a4.001 4.001 0 0 1-5.654 0l-6.12-6.12a1.337 1.337 0 0 1 .434-2.172 1.331 1.331 0 0 1 1.46.292l6.107 6.12z"/></symbol><symbol id="icon-book-shops-logo" viewBox="0 0 33 32"><path d="M10.847 6.243c-3.406 1.698-6.282 3.19-6.4 3.328-.294.334-.579 1.158-.717 2.101-.137.913-.02 2.258.265 2.984.363.942.196.834 6.802 4.142 4.28 2.14 6.223 3.161 6.371 3.347.766.972.864 3.73.186 5.065l-.177.373-6.184-3.092c-3.406-1.698-6.243-3.092-6.321-3.092-.196 0-.275.265-.118.412.069.069 2.906 1.512 6.302 3.21l6.174 3.082 6.233-3.131c5.772-2.896 6.253-3.161 6.498-3.524.422-.609.618-1.502.609-2.798 0-1.315-.236-2.287-.707-2.847l-.294-.344-6.155 3.072c-6.93 3.465-6.223 3.229-6.636 2.179-.157-.402-.226-.825-.265-1.669-.049-1.266.059-1.944.422-2.719l.236-.51 6.233-3.121c3.436-1.718 6.243-3.171 6.243-3.239 0-.079-12.348-6.361-12.407-6.302-.01 0-2.788 1.394-6.194 3.092zm-4.683 5.89c.363.196.756.471.874.618.245.275.304.874.118 1.06-.088.088-.079.206.049.452.186.402.196.599.059.864-.157.275-.491.236-1.325-.177-.658-.324-.736-.393-.736-.648 0-.147.039-.255.088-.226.039.029.108-.353.147-.854.039-.579.02-.913-.039-.932-.128-.049-.128-.51 0-.51.059 0 .402.157.766.353zm2.965 1.501c.442.344.717.893.766 1.541.108 1.325-.599 1.796-1.512.991-.481-.422-.726-.962-.726-1.669 0-1.198.599-1.551 1.472-.864zm2.356 1.139c.638.334 1.031 1.188.962 2.12-.069.962-.501 1.207-1.315.726-.569-.334-.923-1.041-.923-1.875 0-.991.501-1.374 1.276-.972zm1.914 1.05c.373.177.442.265.442.501 0 .157-.039.255-.098.216s-.098.079-.098.294v.353l.294-.177c.196-.108.255-.206.196-.265-.098-.098-.137-.55-.049-.55.029 0 .275.108.54.245.393.196.491.294.491.491 0 .167-.059.245-.167.245a.699.699 0 0 0-.344.137c-.157.118-.147.177.128.903.167.422.334.815.393.864.088.098.128.55.039.55-.029 0-.314-.137-.638-.294-.471-.236-.589-.344-.589-.53 0-.137.039-.255.098-.275.137-.039-.098-.766-.255-.766-.147 0-.255.412-.137.53.098.098.137.55.049.55a4.93 4.93 0 0 1-.491-.216c-.334-.167-.442-.275-.442-.442 0-.128.049-.226.108-.226.088 0 .098-.334.069-1.178-.029-.648-.039-1.178-.02-1.178s.236.098.481.216zm15.519 2.386c.314.481-.098 1.453-.736 1.718-.255.098-.304.177-.304.452 0 .186.049.334.098.334.059 0 .098.128.098.275 0 .226-.079.314-.442.491-.245.118-.491.216-.54.216-.137 0-.118-.461.01-.55.079-.049.098-.422.069-1.266l-.059-1.198.461-.236c.471-.236.991-.461 1.109-.471.039-.01.147.098.236.236zm-2.366 1.325c.177.334.196 1.296.039 1.777-.363 1.06-1.502 1.718-2.012 1.158-.226-.245-.255-1.296-.049-1.885.245-.726.962-1.345 1.551-1.345.255 0 .353.059.471.294zm-2.503.981c0 .157-.039.294-.098.294s-.098.393-.098.991c0 .628.039.962.098.923s.098.069.098.245c0 .265-.059.324-.51.53l-.52.245-.029-.265c-.02-.137.01-.275.069-.294.098-.029.157-.707.059-.707-.02 0-.157.049-.294.118-.186.088-.245.186-.245.442 0 .177.049.324.098.324.059 0 .098.108.098.236 0 .186-.118.304-.55.54l-.55.294.069-.363c.128-.746.167-2.179.059-2.179-.059 0-.108-.128-.108-.275 0-.236.079-.314.54-.54l.54-.265v.294c0 .157-.039.314-.098.344-.098.059-.147.638-.049.638.02 0 .157-.049.294-.118.186-.088.245-.186.245-.442 0-.177-.039-.324-.098-.324-.049 0-.098-.108-.098-.245 0-.186.098-.294.471-.481.589-.314.609-.314.609.039zm-2.748 1.6c0 .471-.029.54-.255.648-.216.098-.294.088-.432-.039-.226-.206-.589-.049-.589.245 0 .167.069.196.53.196.658 0 .785.137.717.746-.079.697-.903 1.453-1.345 1.217-.167-.088-.196-.079-.196.079 0 .147-.344.412-.54.412-.029 0-.049-.236-.049-.52 0-.471.029-.54.245-.638.196-.088.294-.088.442.01.226.137.52 0 .569-.265.029-.128-.059-.157-.461-.157-.422 0-.52-.039-.658-.245-.137-.216-.147-.314-.049-.648.226-.746.991-1.355 1.345-1.06.108.088.137.079.137-.079 0-.167.285-.393.52-.412.039-.01.069.226.069.51z"/><path d="M6.155 12.928c-.059.294.137.589.314.481.167-.108.128-.402-.079-.589-.177-.157-.186-.157-.236.108zM6.086 14.115c0 .373.108.51.402.51.196 0 .039-.618-.177-.766-.226-.137-.226-.137-.226.255zM8.501 14.184c-.088.245-.069 1.09.039 1.364.206.55.589.147.589-.609 0-.638-.461-1.188-.628-.756zM11.102 15.499c-.137.255-.137 1.021.01 1.335.137.304.432.324.51.02.216-.825-.206-1.944-.52-1.355zM27.917 18.886c-.029.079-.039.285-.02.471l.029.324.226-.226c.285-.285.294-.707.02-.707-.108 0-.226.059-.255.137zM25.335 20.299c-.069.157-.108.569-.088.913.029.55.049.628.226.628.226 0 .432-.481.432-1.06.01-.707-.353-1.011-.569-.481zM23.146 13.497c-5.89 2.955-6.223 3.151-6.017 3.485.029.049 2.758-1.256 6.086-2.925 5.801-2.896 6.037-3.023 6.037-3.279 0-.157-.029-.275-.069-.265-.049 0-2.758 1.345-6.037 2.984zM23.146 14.734c-5.595 2.798-6.066 3.053-6.066 3.279 0 .137.049.245.098.245.059 0 2.798-1.345 6.086-2.994 5.919-2.964 5.988-2.994 5.988-3.288 0-.167-.01-.294-.02-.285-.02 0-2.758 1.364-6.086 3.043zM23.117 15.98c-6.037 3.043-6.155 3.102-5.968 3.475.02.039 2.748-1.286 6.066-2.945 5.791-2.886 6.037-3.023 6.037-3.279 0-.157-.029-.275-.069-.265-.049 0-2.768 1.355-6.066 3.014zM23.195 17.178c-3.2 1.6-5.88 2.974-5.968 3.043-.167.137-.206.491-.049.491.059 0 2.798-1.345 6.086-2.994 5.526-2.758 5.988-3.014 5.988-3.239 0-.137-.059-.236-.118-.236-.069.01-2.748 1.325-5.939 2.935zM4.829 16.942c.029.285-.206.147 5.163 2.896 1.61.815 3.759 1.924 4.79 2.454 1.031.54 1.904.972 1.934.972.039 0 .069-.118.069-.275 0-.245-.128-.334-1.993-1.266-1.09-.559-3.75-1.914-5.909-3.023-2.159-1.099-3.966-2.012-4.005-2.012-.049 0-.069.118-.049.255zM4.81 18.15c0 .098.059.226.128.285.157.128 1.404.775 4.535 2.375 1.404.717 3.622 1.855 4.937 2.523l2.375 1.217v-.285c0-.285-.069-.334-2.081-1.355a130.14 130.14 0 0 1-2.582-1.315c-1.276-.687-7.107-3.632-7.205-3.632-.059 0-.108.079-.108.186zM4.829 19.396c.029.275-.275.108 7.441 4.034 2.081 1.06 3.917 2.012 4.074 2.11.393.236.442.226.442-.098 0-.245-.108-.324-1.306-.923-1.816-.933-6.341-3.249-8.589-4.407-1.04-.53-1.934-.972-1.993-.972s-.088.118-.069.255zM4.81 20.466c0 .294-.059.255 3.681 2.16 1.571.795 4.044 2.061 5.507 2.807 1.463.756 2.69 1.364 2.729 1.364s.059-.118.039-.255c-.029-.275-.01-.265-4.643-2.631-1.453-.746-3.671-1.885-4.918-2.523-1.247-.648-2.297-1.168-2.326-1.168-.039 0-.069.108-.069.245z"/></symbol><symbol id="icon-trash" viewBox="0 0 32 32"><path stroke-linejoin="round" stroke-linecap="round" stroke-width="2.909" d="M12 4h8M4 8h24m-2.667 0-.935 14.026c-.14 2.104-.21 3.157-.665 3.954a4 4 0 0 1-1.731 1.619c-.826.4-1.881.4-3.99.4h-4.025c-2.109 0-3.163 0-3.99-.4a4.005 4.005 0 0 1-1.731-1.619c-.455-.798-.525-1.85-.665-3.954L6.666 8m6.667 6v6.667M18.667 14v6.667"/></symbol><symbol id="icon-triangle" viewBox="0 0 28 32"><path d="M5.898 12h16.513l-7.423 8.391c-.221.25-.521.39-.834.39s-.613-.14-.834-.39L5.897 12z"/></symbol><symbol id="icon-lock" viewBox="0 0 32 32"><path d="M22.763 11.546V6.762c0-3.729-3.034-6.763-6.763-6.763S9.237 3.033 9.237 6.762v4.784H4.618V32h22.763V11.546h-4.619zM11.216 6.763c0-2.638 2.146-4.784 4.784-4.784s4.784 2.146 4.784 4.784v4.784h-9.567V6.763zm14.186 23.258H6.598V13.526h18.804v16.495z"/><path d="M15.01 22.304v3.534h1.979v-3.534a2.313 2.313 0 0 0 1.32-2.086c0-1.273-1.036-2.309-2.309-2.309s-2.309 1.036-2.309 2.309c0 .919.54 1.715 1.32 2.086z"/></symbol><symbol id="icon-mail" viewBox="0 0 32 32"><path d="M30 24c0 .203-.039.395-.095.578L21 15l9-7v16zM3.556 25.946l9.024-9.616L16 18.915l3.272-2.601 9.172 9.632c-.143.033-24.745.033-24.888 0zM2 24V8l9 7-8.905 9.578A1.966 1.966 0 0 1 2 24zM29 6 16 16 3 6h26zm-1-2H4a4 4 0 0 0-4 4v16a4 4 0 0 0 4 4h24a4 4 0 0 0 4-4V8a4 4 0 0 0-4-4z"/></symbol></defs></svg>