<svg aria-hidden="true" style="position: absolute; width: 0; height: 0; overflow: hidden;" version="1.1" xmlns="http://www.w3.org/2000/svg" xmlns:xlink="http://www.w3.org/1999/xlink">
<defs>
<symbol id="icon-amazon" viewBox="0 0 106 32">
<path d="M65.759 24.999c-6.154 4.536-15.073 6.956-22.753 6.956-10.768 0-20.462-3.983-27.796-10.607-0.576-0.521-0.060-1.231 0.631-0.825 7.915 4.605 17.701 7.375 27.809 7.375 6.818 0 14.317-1.411 21.213-4.338 1.042-0.443 1.913 0.682 0.894 1.438z"></path>
<path d="M68.318 22.072c-0.784-1.005-5.2-0.475-7.182-0.24-0.604 0.074-0.696-0.452-0.152-0.83 3.517-2.475 9.288-1.761 9.961-0.931 0.673 0.834-0.175 6.619-3.48 9.38-0.507 0.424-0.991 0.198-0.765-0.364 0.742-1.853 2.406-6.006 1.618-7.016z"></path>
<path d="M61.274 3.528v-2.406c0-0.364 0.277-0.608 0.608-0.608h10.773c0.346 0 0.622 0.249 0.622 0.608v2.060c-0.005 0.346-0.295 0.797-0.811 1.512l-5.582 7.97c2.074-0.051 4.264 0.258 6.145 1.318 0.424 0.24 0.539 0.59 0.572 0.936v2.568c0 0.35-0.387 0.761-0.793 0.549-3.314-1.738-7.716-1.927-11.381 0.018-0.373 0.203-0.765-0.203-0.765-0.553v-2.438c0-0.392 0.005-1.060 0.396-1.655l6.467-9.274h-5.628c-0.346 0-0.622-0.244-0.622-0.604z"></path>
<path d="M21.978 18.541h-3.277c-0.313-0.023-0.562-0.258-0.585-0.558v-16.82c0-0.337 0.281-0.604 0.631-0.604h3.056c0.318 0.014 0.572 0.258 0.595 0.562v2.199h0.060c0.797-2.125 2.296-3.116 4.315-3.116 2.051 0 3.333 0.991 4.255 3.116 0.793-2.125 2.595-3.116 4.527-3.116 1.374 0 2.876 0.567 3.794 1.839 1.037 1.415 0.825 3.471 0.825 5.273l-0.005 10.616c0 0.337-0.281 0.608-0.632 0.608h-3.273c-0.327-0.023-0.59-0.286-0.59-0.608v-8.915c0-0.71 0.065-2.48-0.092-3.153-0.244-1.129-0.977-1.447-1.927-1.447-0.793 0-1.623 0.53-1.959 1.378s-0.304 2.268-0.304 3.222v8.915c0 0.337-0.281 0.608-0.631 0.608h-3.273c-0.332-0.023-0.59-0.286-0.59-0.608l-0.005-8.915c0-1.876 0.309-4.637-2.019-4.637-2.355 0-2.263 2.692-2.263 4.637v8.915c0 0.337-0.281 0.608-0.631 0.608z"></path>
<path d="M82.552 0.205c4.863 0 7.495 4.176 7.495 9.486 0 5.13-2.909 9.201-7.495 9.201-4.775 0-7.375-4.176-7.375-9.38 0-5.236 2.632-9.307 7.375-9.307zM82.58 3.639c-2.415 0-2.568 3.291-2.568 5.342 0 2.056-0.032 6.444 2.54 6.444 2.54 0 2.66-3.54 2.66-5.697 0-1.42-0.060-3.116-0.489-4.462-0.369-1.171-1.102-1.627-2.143-1.627z"></path>
<path d="M96.353 18.541h-3.264c-0.327-0.023-0.59-0.286-0.59-0.608l-0.005-16.825c0.028-0.309 0.3-0.549 0.632-0.549h3.038c0.286 0.014 0.521 0.207 0.585 0.47v2.572h0.060c0.917-2.3 2.203-3.397 4.467-3.397 1.47 0 2.904 0.53 3.826 1.982 0.857 1.346 0.857 3.609 0.857 5.236v10.588c-0.037 0.295-0.309 0.53-0.632 0.53h-3.287c-0.3-0.023-0.549-0.244-0.581-0.53v-9.136c0-1.839 0.212-4.531-2.051-4.531-0.797 0-1.53 0.535-1.895 1.346-0.461 1.028-0.521 2.051-0.521 3.185v9.058c-0.005 0.337-0.29 0.608-0.641 0.608z"></path>
<path d="M52.687 10.507v-0.71c-2.369 0-4.872 0.507-4.872 3.3 0 1.415 0.733 2.374 1.991 2.374 0.922 0 1.747-0.567 2.268-1.489 0.645-1.134 0.613-2.199 0.613-3.476zM55.992 18.495c-0.217 0.194-0.53 0.207-0.774 0.078-1.088-0.903-1.281-1.323-1.881-2.185-1.798 1.835-3.070 2.383-5.402 2.383-2.757 0-4.905-1.701-4.905-5.107 0-2.66 1.443-4.471 3.494-5.356 1.779-0.784 4.264-0.922 6.163-1.139v-0.424c0-0.779 0.060-1.701-0.396-2.374-0.401-0.604-1.166-0.853-1.839-0.853-1.249 0-2.365 0.641-2.637 1.968-0.055 0.295-0.272 0.585-0.567 0.599l-3.181-0.341c-0.267-0.060-0.562-0.277-0.489-0.687 0.733-3.854 4.213-5.015 7.329-5.015 1.595 0 3.678 0.424 4.937 1.632 1.595 1.489 1.443 3.476 1.443 5.638v5.107c0 1.535 0.636 2.208 1.235 3.038 0.212 0.295 0.258 0.65-0.009 0.871-0.668 0.558-1.858 1.595-2.512 2.176l-0.009-0.009z"></path>
<path d="M9.721 10.507v-0.71c-2.369 0-4.872 0.507-4.872 3.3 0 1.415 0.733 2.374 1.991 2.374 0.922 0 1.747-0.567 2.268-1.489 0.645-1.134 0.613-2.199 0.613-3.476zM13.026 18.495c-0.217 0.194-0.53 0.207-0.774 0.078-1.088-0.903-1.281-1.323-1.881-2.185-1.798 1.835-3.070 2.383-5.402 2.383-2.756 0-4.905-1.701-4.905-5.107 0-2.66 1.443-4.471 3.494-5.356 1.779-0.784 4.264-0.922 6.163-1.139v-0.424c0-0.779 0.060-1.701-0.396-2.374-0.401-0.604-1.166-0.853-1.839-0.853-1.249 0-2.365 0.641-2.637 1.968-0.055 0.295-0.272 0.585-0.567 0.599l-3.181-0.341c-0.267-0.060-0.562-0.277-0.489-0.687 0.733-3.854 4.213-5.015 7.329-5.015 1.595 0 3.678 0.424 4.937 1.632 1.595 1.489 1.443 3.476 1.443 5.638v5.107c0 1.535 0.636 2.208 1.235 3.038 0.212 0.295 0.258 0.65-0.009 0.871-0.668 0.558-1.858 1.595-2.512 2.176l-0.009-0.009z"></path>
</symbol>
<symbol id="icon-apple-books-logo" viewBox="0 0 32 32">
<path d="M9.916 5.758c-2.298 0-4.16 1.862-4.16 4.16v12.48c0 2.298 1.862 4.16 4.16 4.16h12.48c2.297 0 4.16-1.862 4.16-4.16v-12.48c0-2.298-1.862-4.16-4.16-4.16h-12.48zM9.916 6.397h12.48c1.944 0 3.52 1.576 3.52 3.52v12.48c0 1.944-1.576 3.52-3.52 3.52h-12.48c-1.944 0-3.52-1.576-3.52-3.52v-12.48c0-1.944 1.576-3.52 3.52-3.52zM10.823 7.357c-1.915 0-3.467 1.552-3.467 3.467v10.664c0 1.915 1.552 3.468 3.467 3.468h10.664c1.915 0 3.468-1.553 3.468-3.468v-5.972c0-0.088-0.072-0.16-0.16-0.16s-0.16 0.072-0.16 0.16v5.972c0 1.739-1.41 3.148-3.148 3.148h-10.664c-1.739 0-3.148-1.41-3.148-3.148v-10.664c0-1.739 1.409-3.147 3.148-3.147h10.773c0.088 0 0.16-0.072 0.16-0.16s-0.072-0.16-0.16-0.16h-10.773zM12.646 10.88c-1.316 0-2.16 0.415-2.668 0.837s-0.687 0.864-0.687 0.864c-0.007 0.017-0.011 0.038-0.011 0.059 0 0 0 0 0 0v-0 8.32c0 0.088 0.072 0.16 0.16 0.16 0.044 0 0.085-0.018 0.114-0.047v0c0 0 0.216-0.219 0.676-0.449s1.154-0.463 2.091-0.463c2.467 0 3.386 2.144 3.386 2.144 0.025 0.057 0.081 0.096 0.147 0.096 0.088 0 0.16-0.072 0.16-0.16 0-0 0-0 0-0v0-9.28c-0-0.026-0.006-0.051-0.018-0.073l0 0.001c0 0-1.023-2.008-3.349-2.008zM19.686 10.88c-2.326 0-3.349 2.008-3.349 2.008-0.011 0.021-0.017 0.046-0.017 0.072v0 9.28c0 0 0 0 0 0 0 0.088 0.072 0.16 0.16 0.16 0.065 0 0.122-0.039 0.146-0.095l0-0.001c0 0 0.919-2.144 3.386-2.144 0.937 0 1.631 0.233 2.091 0.463s0.676 0.449 0.676 0.449c0.029 0.029 0.069 0.047 0.114 0.047 0.088 0 0.16-0.072 0.16-0.16v0-8.32c0-0 0-0 0-0 0-0.021-0.004-0.041-0.012-0.060l0 0.001c0 0-0.18-0.441-0.688-0.864s-1.351-0.837-2.668-0.837zM12.646 11.2c2.117 0 3.024 1.768 3.046 1.811v8.669c-0.459-0.683-1.491-1.84-3.373-1.84-0.99 0-1.735 0.247-2.234 0.497-0.319 0.16-0.368 0.229-0.486 0.327v-7.984c0.012-0.030 0.149-0.355 0.583-0.716 0.454-0.378 1.213-0.763 2.463-0.763zM19.686 11.2c1.25 0 2.009 0.386 2.463 0.763 0.434 0.361 0.571 0.687 0.583 0.716v7.984c-0.118-0.098-0.167-0.167-0.486-0.327-0.498-0.25-1.244-0.497-2.234-0.497-1.882 0-2.913 1.157-3.372 1.84v-8.669c0.022-0.043 0.93-1.811 3.046-1.811zM24.796 11.703c-0.088 0-0.16 0.072-0.16 0.16v0.64c0 0.088 0.072 0.16 0.16 0.16s0.16-0.071 0.16-0.16v-0.64c0-0.088-0.072-0.16-0.16-0.16zM24.796 12.982c-0.088 0-0.16 0.072-0.16 0.16v1.28c0 0.088 0.072 0.16 0.16 0.16s0.16-0.071 0.16-0.16v-1.28c0-0.088-0.072-0.16-0.16-0.16z"></path>
</symbol>
<symbol id="icon-Barnes__Noble_logo" viewBox="0 0 209 32">
<path d="M209.021 26.553v4.426h-11.574v-29.277h10.757v4.426h-5.651v7.83h5.038v4.085h-5.106v8.511h6.536zM182.809 1.634h5.447v24.919h6.128v4.426h-11.574v-29.345zM179.064 22.604c0 6.128-2.723 8.374-7.489 8.374h-6.536v-29.277h6.604c5.243 0 6.604 2.996 6.604 7.966 0 3.677-1.362 5.583-3.608 5.719 2.519 0 4.494 2.519 4.494 7.217h-0.068zM171.166 5.106h-0.953v8.511h1.362c1.362 0 1.566-1.362 1.566-3.813 0-3.404-0.409-4.766-2.043-4.766l0.068 0.068zM171.37 17.089h-1.157v10.417h1.362c1.566 0 2.043-0.953 2.043-5.447 0-3.2-0.477-4.902-2.247-4.902v-0.068zM154.077 31.523c-4.562 0-6.945-1.906-6.945-15.115 0-12.8 2.043-14.979 7.013-14.979 5.106 0 7.013 2.179 7.013 14.979 0 12.528-2.043 15.115-7.013 15.115h-0.068zM155.438 6.877c-0.204-2.043-0.681-2.519-1.362-2.519-0.817 0-1.226 0.409-1.362 2.519-0.136 2.043-0.136 4.97-0.136 9.532 0 5.447 0 7.489 0.204 9.396 0.136 2.247 0.545 2.451 1.362 2.451 0.885 0 1.157 0 1.362-2.451v-18.996l-0.068 0.068zM135.694 20.153c-0.477-1.362-0.817-2.996-1.226-5.038 0.272 3.949 0.272 5.038 0.272 8.511v7.489h-4.97v-29.277h4.902s2.179 8.647 2.723 10.417c0.477 1.838 0.885 3.268 1.021 4.63-0.136-2.928-0.136-6.4-0.136-9.328v-5.923h4.766v29.277h-4.153l-3.268-10.894 0.068 0.136zM98.043 23.285c0 4.766-2.043 8.17-6.672 8.17-3.949 0-6.604-2.043-6.604-7.149 0-1.157 0-2.247 0.272-3.132h4.766c-0.204 1.089-0.34 1.77-0.34 3.064 0 3.268 0.817 3.813 2.043 3.813 0.885 0 1.566-0.477 1.566-3.745 0-2.86-2.043-4.97-4.085-7.489-2.179-2.451-4.426-5.719-4.426-8.443 0-4.357 2.043-6.809 6.264-6.809 4.085 0 6.332 2.179 6.332 6.468 0 0.953-0.272 1.702-0.409 2.383h-4.357l0.136-2.043c0-2.723-0.409-3.745-1.566-3.745-1.226 0-1.362 1.157-1.362 3.268 0 2.723 2.043 4.766 3.881 6.945 2.451 3.132 4.494 5.583 4.494 8.647l0.068-0.204zM70.128 1.702h10.894v4.426h-5.651v7.83h5.038v4.085h-4.97v8.511h6.468v4.426h-11.574v-29.277h-0.204zM57.872 20.085c-0.408-1.362-0.817-2.996-1.157-5.038 0.272 3.949 0.272 5.038 0.272 8.511v7.489h-4.902v-29.277h4.902l2.723 10.417c0.545 1.838 0.953 3.268 1.226 4.63-0.136-2.928-0.272-6.4-0.272-9.328v-5.855h4.766v29.277h-4.289l-3.2-10.894-0.068 0.068zM43.302 16c3.404 0.817 3.745 4.766 3.745 8.306 0 2.723 0.204 5.243 0.545 6.672h-5.447c0-1.226-0.34-1.702-0.34-4.494v-3.677c0-2.383-0.817-4.085-2.519-4.562h-0.272v12.596h-5.447v-29.277h7.966c3.608 0 6.128 2.043 6.128 7.489 0 4.494-2.043 6.468-4.357 6.809v0.136zM39.898 5.379h-0.953v8.374h1.566c1.362 0 1.77-0.885 1.77-3.404 0-4.426-0.681-5.038-2.383-4.97zM24.374 26.213h-3.404l-0.409 4.766h-4.562l4.289-29.481h5.174l4.97 29.413h-5.447l-0.681-4.766 0.068 0.068zM23.421 17.362c-0.136-1.362-0.681-5.651-0.681-8.443-0.204 2.928-0.681 7.081-0.681 8.374l-0.681 5.651h2.723l-0.681-5.583zM14.026 22.468c0 6.128-2.723 8.374-7.489 8.374h-6.536v-29.277h6.604c5.174 0 6.536 2.996 6.536 7.966 0 3.677-1.362 5.583-3.608 5.719 2.519 0 4.494 2.519 4.494 7.217zM6.128 5.106h-1.021v8.511h1.362c1.362 0 1.566-1.362 1.566-3.813 0-3.404-0.34-4.766-2.043-4.766l0.136 0.068zM6.264 17.021h-1.089v10.417h1.362c1.566 0 2.043-0.953 2.043-5.447 0-3.2-0.477-4.902-2.247-4.902l-0.068-0.068z"></path>
<path d="M127.183 18.928c-0.136 0.953-0.681 1.702-1.77 1.702-2.247 0-0.477-3.404-2.587-3.404-1.226 0-2.043 1.089-3.404 3.949l-2.043 4.902 0.409 0.885c1.362 1.838 2.587 3.132 4.085 3.132 0.817 0 1.702-0.409 3.064-1.77l0.681 0.953c-1.498 1.838-3.404 2.86-5.106 2.86-2.043 0-3.813-1.838-5.106-3.268-1.906 2.043-4.085 3.268-7.081 3.268-4.289 0-8.17-2.723-7.217-8.851 0.817-3.677 3.609-6.128 6.808-8.17-0.953-2.451-1.498-5.447-1.089-7.694 0.749-4.698 4.97-7.421 8.579-7.421 4.221 0 6.128 2.86 5.447 6.128-0.34 1.702-1.089 3.268-2.86 4.766-1.838 1.634-4.902 3.064-6.604 4.085 1.089 2.723 2.723 5.787 5.038 9.736 0.681-1.362 1.702-3.813 2.723-5.787 0.885-2.043 2.315-3.268 4.426-3.268 2.928 0 3.745 2.043 3.609 3.268zM104.374 24.034c-0.409 2.519 1.157 5.923 5.243 5.923 2.043 0 3.404-0.545 4.766-2.247-2.587-3.677-4.426-7.217-5.923-10.757-2.043 1.77-3.54 3.745-4.085 7.081zM116.97 9.26c0.885-1.157 1.157-2.043 1.362-2.996 0.477-2.451-0.953-4.085-3.064-4.085-2.723 0-4.766 2.247-4.902 4.357-0.477 2.315-0.204 4.562 0.545 6.945 1.634-0.953 5.038-3.064 6.128-4.221h-0.068z"></path>
</symbol>
<symbol id="icon-Books-A-Million_logo" viewBox="0 0 86 32">
<path d="M2.297 30.32h0.738c0.419 0 0.678-0.099 0.678-0.525 0-0.384-0.259-0.523-0.678-0.523h-0.738v1.048zM2.297 27.725h0.645c0.419 0 0.679-0.099 0.679-0.524 0-0.385-0.26-0.524-0.679-0.524h-0.645v1.048zM5.691 26.038c0.31 0.426 0.335 1.056 0.21 1.441-0.202 0.598-0.528 0.802-1.097 0.991 0.46 0.156 0.812 0.294 1.131 0.843 0.251 0.443 0.251 1.13 0.007 1.547-0.477 0.852-1.817 0.852-2.245 0.852h-3.654v-6.444h3.528c0.586 0 1.6 0.050 2.12 0.77z"></path>
<path d="M9.974 29.911c0.746 0 1.339-0.623 1.339-1.351s-0.567-1.35-1.348-1.35c-0.797 0-1.368 0.622-1.368 1.35s0.572 1.351 1.377 1.351zM6.302 28.559c0-1.874 1.575-3.396 3.655-3.396 2.093 0 3.653 1.522 3.653 3.396s-1.559 3.398-3.653 3.398c-2.062 0-3.655-1.523-3.655-3.398z"></path>
<path d="M17.598 29.911c0.745 0 1.34-0.623 1.34-1.351s-0.569-1.35-1.349-1.35c-0.797 0-1.367 0.622-1.367 1.35s0.57 1.351 1.377 1.351zM13.926 28.559c0-1.874 1.576-3.396 3.654-3.396 2.095 0 3.655 1.522 3.655 3.396s-1.559 3.398-3.655 3.398c-2.060 0-3.654-1.523-3.654-3.398z"></path>
<path d="M34.925 29.605c0.538 0 0.966-0.448 0.966-0.972 0-0.525-0.411-0.973-0.972-0.973-0.573 0-0.984 0.448-0.984 0.973 0 0.524 0.411 0.972 0.99 0.972z"></path>
<path d="M43.628 29.607c0.537 0 0.965-0.448 0.965-0.972 0-0.525-0.41-0.973-0.972-0.973-0.572 0-0.982 0.448-0.982 0.973 0 0.524 0.41 0.972 0.989 0.972z"></path>
<path d="M23.904 25.268v2.685l1.725-2.685h2.456l-1.961 2.956 2.261 3.488h-2.698l-1.784-2.743v2.743h-2.255v-6.444h2.255z"></path>
<path d="M31.846 27.169c-0.16-0.418-0.302-0.582-0.728-0.631-0.177-0.024-0.545-0.007-0.723 0.213-0.090 0.131-0.099 0.27-0.049 0.385 0.143 0.343 0.695 0.319 1.021 0.343 0.613 0.041 1.527 0.181 1.995 1.008 0.311 0.556 0.311 1.415-0.008 2.030-0.486 0.932-1.442 1.285-2.187 1.367-0.586 0.081-1.902-0.009-2.615-0.795-0.141-0.155-0.267-0.352-0.41-0.72l1.608-0.589c0.26 0.458 0.529 0.654 0.963 0.663 0.22 0 0.496-0.049 0.647-0.269 0.066-0.107 0.091-0.255 0.007-0.402-0.151-0.286-0.56-0.278-0.93-0.295-0.535-0.033-1.5-0.221-1.944-1.040-0.343-0.622-0.334-1.391 0.009-2.046 0.444-0.852 1.241-1.138 1.936-1.237 0.563-0.081 1.87-0.073 2.54 0.614 0.201 0.229 0.319 0.475 0.411 0.81l-1.542 0.59z"></path>
<path d="M39.213 28.335l-0.576 1.244h1.162l-0.586-1.244zM37.627 31.752h-2.496l3.98-6.609h0.212l3.983 6.609h-2.496l-0.375-0.796h-2.436l-0.372 0.796z"></path>
<path d="M45.303 25.187l3.143 2.546 3.301-2.546h0.169l0.199 6.525h-2.178l-0.127-2.367-1.373 1.082-1.5-1.139-0.091 2.424h-2.012l0.284-6.525h0.186z"></path>
<path d="M55.136 31.712h-2.255v-6.444h2.255v6.444z"></path>
<path d="M58.171 25.268v4.962h1.976v1.482h-4.229v-6.444h2.253z"></path>
<path d="M62.855 25.268v4.962h1.976v1.482h-4.231v-6.444h2.255z"></path>
<path d="M67.612 31.712h-2.254v-6.444h2.254v6.444z"></path>
<path d="M71.853 29.911c0.745 0 1.34-0.623 1.34-1.351s-0.569-1.35-1.35-1.35c-0.796 0-1.366 0.622-1.366 1.35s0.571 1.351 1.376 1.351zM68.181 28.559c0-1.874 1.576-3.396 3.655-3.396 2.093 0 3.653 1.522 3.653 3.396s-1.559 3.398-3.653 3.398c-2.062 0-3.655-1.523-3.655-3.398z"></path>
<path d="M76.282 25.187l4.242 2.602v-2.521h2.253v6.616h-0.158l-4.317-2.612v2.44h-2.255v-6.525h0.234z"></path>
<path d="M85.158 1.12v-0.346h0.229c0.117 0 0.243 0.026 0.243 0.164 0 0.171-0.128 0.182-0.271 0.182h-0.201zM85.158 1.263h0.194l0.293 0.481h0.189l-0.317-0.487c0.164-0.022 0.289-0.108 0.289-0.307 0-0.22-0.13-0.317-0.391-0.317h-0.427v1.112h0.17v-0.481zM85.361 2.15c0.526 0 0.972-0.406 0.972-0.963 0-0.555-0.447-0.96-0.972-0.96-0.531 0-0.981 0.406-0.981 0.96 0 0.557 0.451 0.963 0.981 0.963zM84.573 1.186c0-0.458 0.348-0.801 0.788-0.801 0.438 0 0.781 0.343 0.781 0.801 0 0.463-0.343 0.804-0.781 0.804-0.44 0-0.788-0.342-0.788-0.804z"></path>
<path d="M7.495 17.33h2.432c1.383 0 2.238-0.337 2.238-1.79 0-1.313-0.855-1.788-2.238-1.788h-2.432v3.579zM7.495 8.472h2.125c1.385 0 2.244-0.337 2.244-1.788 0-1.314-0.859-1.789-2.244-1.789h-2.125v3.577zM18.689 2.715c1.023 1.453 1.103 3.604 0.69 4.918-0.664 2.039-1.74 2.738-3.618 3.381 1.519 0.532 2.678 1.006 3.732 2.879 0.828 1.509 0.828 3.853 0.023 5.281-1.573 2.903-5.994 2.903-7.405 2.903h-12.052v-21.986h11.637c1.932 0 5.277 0.168 6.992 2.624z"></path>
<path d="M34.041 10.941l-1.902 4.101h3.836l-1.934-4.101zM28.808 22.209h-8.235l13.132-21.799h0.698l13.136 21.799h-8.232l-1.234-2.625h-8.034l-1.231 2.625z"></path>
<path d="M50.725 0.556l10.367 8.397 10.887-8.397h0.556l0.658 21.52h-7.183l-0.418-7.804-4.53 3.566-4.949-3.753-0.298 7.991h-6.638l0.937-21.52h0.612z"></path>
<path d="M81.094 20.557c0 1.268-1.027 2.294-2.293 2.294s-2.293-1.026-2.293-2.294c0-1.267 1.027-2.294 2.293-2.294s2.293 1.027 2.293 2.294z"></path>
<path d="M74.614 0.043h8.289l-2.819 16.665h-2.82l-2.651-16.665z"></path>
</symbol>
<symbol id="icon-book-shops-logo" viewBox="0 0 209 32">
<path d="M35.704 10.45c0.042-0.327 0.062-0.657 0.060-0.986 0.003-0.34-0.018-0.68-0.060-1.017-0.223-1.491-0.901-2.87-1.935-3.939-0.567-0.6-1.222-1.104-1.941-1.495-0.463-0.287-0.96-0.514-1.477-0.676-1.321-0.335-2.679-0.485-4.039-0.447h-1.079l-24.875 0.031c-0.193 0-0.35 0.161-0.35 0.36v1.055c-0 0.186 0.139 0.341 0.32 0.354h0.229c0.217 0.062 0.434 0.062 0.657 0.062 0.502 0.010 1.003 0.066 1.495 0.167 0.195 0.040 0.383 0.114 0.555 0.217 0.255 0.224 0.408 0.548 0.422 0.893 0.069 0.57 0.102 1.144 0.096 1.718v5.069c0 0.335 0 0.676 0 0.98 0 0.36 0 0.701 0 0.943 0.033 0.406-0.095 0.809-0.356 1.117-0.292 0.153-0.619 0.222-0.946 0.198h-0.121c-0.289 0-0.524 0-0.772 0s-0.603 0-1.043 0.043h-0.229c-0.1 0.012-0.19 0.066-0.249 0.15s-0.080 0.189-0.059 0.29v1.055c0.002 0.188 0.143 0.344 0.326 0.36h0.223c0.338 0.031 0.603 0.031 0.928 0.031h1.296c0.35 0 0.687 0.031 0.856 0.447 0.045 0.11 0.070 0.228 0.072 0.347v0.087c0 0.347 0.054 0.701 0.060 1.055s0 0.62 0 0.924v3.319c0 0.236 0 0.478 0 0.726 0.027 0.732 0.017 1.465-0.030 2.196-0.029 0.544-0.242 1.060-0.603 1.458-0.39 0.348-0.888 0.542-1.405 0.546h-0.928c-0.169 0-0.332 0-0.488 0.043h-0.127c-0.163 0-0.163 0.174-0.163 0.236-0.018 0.064-0.024 0.132-0.018 0.199v1.191c-0 0.079 0.030 0.155 0.084 0.211 0.114 0.092 0.26 0.132 0.404 0.112h24.609c0.543 0 1.206 0 1.809 0h0.223c0.655 0.006 1.309-0.032 1.959-0.112 0.436-0.057 0.866-0.155 1.284-0.292 0.506-0.174 0.995-0.399 1.459-0.67 0.714-0.403 1.364-0.916 1.929-1.52 1.034-1.069 1.712-2.448 1.935-3.939 0.042-0.327 0.062-0.657 0.060-0.986 0.003-0.34-0.017-0.68-0.060-1.017-0.311-1.987-1.401-3.757-3.014-4.895l-0.892-0.651 0.892-0.62c1.623-1.143 2.714-2.926 3.014-4.926zM32.563 19.191c0.789 0.924 1.25 2.097 1.308 3.325-0.048 1.246-0.51 2.437-1.308 3.375-0.462 0.557-1.015 1.027-1.634 1.39-0.18 0.101-0.365 0.192-0.555 0.273-1.411 0.62-3.014 0.583-4.582 0.546h-18.683c-0.415-0.002-0.813-0.173-1.104-0.477s-0.454-0.715-0.451-1.142v-8.685c0.007-0.438 0.352-0.791 0.778-0.794h7.578c1.851 0 3.907 0 5.896 0h5.993c1.32-0.099 2.646 0.016 3.931 0.341 1.114 0.295 2.109 0.947 2.84 1.861l-0.006-0.012zM30.959 14.172c-1.381 0.8-3.129 0.806-4.407 0.806-4.009 0-8.024 0-11.455 0h-8.748c-0.436 0-0.79-0.364-0.79-0.813 0-1.905 0-3.722 0-5.341v-3.834c0-0.586 0.462-1.061 1.031-1.061h9.345c0.82 0 1.652 0 2.46 0h0.030c1.296 0 2.761 0 4.166 0 0.669 0 1.344 0 1.995 0h0.030c0.82 0 1.664-0.031 2.496 0 1.369 0.056 2.936 0.186 4.16 1.030 1.137 0.754 1.988 1.886 2.412 3.207 0.125 0.419 0.196 0.853 0.211 1.29v0.037c-0.070 1.225-0.54 2.39-1.332 3.307-0.453 0.55-0.995 1.014-1.604 1.371z"></path>
<path d="M55.593 15.793c1.774 0 3.162 0.43 4.164 1.291 1.019 0.861 1.528 1.941 1.528 3.241 0 1.458-0.553 2.67-1.66 3.637s-2.749 1.449-4.928 1.449h-9.329v-0.791c1.019-0.053 1.695-0.272 2.029-0.659 0.351-0.404 0.527-1.16 0.527-2.266v-11.016c0-1.124-0.176-1.88-0.527-2.266-0.334-0.386-1.010-0.606-2.029-0.659v-0.791h9.092c1.897 0 3.364 0.404 4.401 1.212s1.555 1.906 1.555 3.294c0 1.142-0.448 2.108-1.344 2.899-0.878 0.791-2.047 1.212-3.505 1.265h-0.922v0.158h0.949zM53.485 7.966h-2.635v7.273h2.872c1.16 0 2.056-0.307 2.688-0.922 0.65-0.632 0.975-1.528 0.975-2.688 0-1.37-0.325-2.319-0.975-2.846-0.65-0.545-1.625-0.817-2.925-0.817zM54.223 24.41c1.318 0 2.31-0.36 2.978-1.080s1.001-1.713 1.001-2.978c0-1.283-0.369-2.284-1.107-3.004-0.738-0.738-1.766-1.107-3.083-1.107h-3.162v6.562c0 0.527 0.123 0.931 0.369 1.212 0.246 0.264 0.668 0.395 1.265 0.395h1.739zM74.275 23.804c-1.23 1.283-2.802 1.924-4.717 1.924s-3.496-0.641-4.744-1.924c-1.23-1.283-1.845-2.916-1.845-4.902 0-1.968 0.615-3.593 1.845-4.875 1.247-1.3 2.829-1.95 4.744-1.95s3.487 0.65 4.717 1.95c1.247 1.283 1.871 2.908 1.871 4.875 0 1.985-0.624 3.619-1.871 4.902zM66.053 18.903c0 3.742 1.168 5.613 3.505 5.613s3.505-1.871 3.505-5.613c0-3.742-1.168-5.613-3.505-5.613s-3.505 1.871-3.505 5.613zM89.227 23.804c-1.23 1.283-2.802 1.924-4.717 1.924s-3.496-0.641-4.744-1.924c-1.23-1.283-1.845-2.916-1.845-4.902 0-1.968 0.615-3.593 1.845-4.875 1.247-1.3 2.829-1.95 4.744-1.95s3.487 0.65 4.717 1.95c1.247 1.283 1.871 2.908 1.871 4.875 0 1.985-0.624 3.619-1.871 4.902zM81.005 18.903c0 3.742 1.168 5.613 3.505 5.613s3.505-1.871 3.505-5.613-1.168-5.613-3.505-5.613c-2.337 0-3.505 1.871-3.505 5.613zM92.222 25.412v-0.764c0.896-0.105 1.476-0.264 1.739-0.474 0.263-0.228 0.395-0.685 0.395-1.37v-14.362c0-0.527-0.079-0.887-0.237-1.080s-0.456-0.29-0.896-0.29c-0.281 0-0.597 0.026-0.949 0.079v-0.712l3.979-1.054h0.764v17.419c0 0.668 0.115 1.116 0.343 1.344s0.685 0.395 1.37 0.501v0.764h-6.509zM103.21 25.412l-5.798-6.825 3.848-3.083c0.791-0.668 1.186-1.203 1.186-1.608 0-0.281-0.105-0.466-0.316-0.553-0.211-0.105-0.562-0.158-1.054-0.158v-0.791h5.455v0.791c-0.913 0.123-1.985 0.703-3.215 1.739l-3.11 2.556 0.026 0.132 4.375 5.060c0.492 0.58 0.922 1.019 1.291 1.318 0.387 0.299 0.861 0.518 1.423 0.659v0.764h-4.111zM112.357 25.728c-1.756 0-3.206-0.448-4.348-1.344v-3.215h0.975c0.247 1.089 0.712 1.915 1.397 2.477s1.494 0.843 2.424 0.843c0.738 0 1.327-0.176 1.766-0.527 0.457-0.351 0.685-0.835 0.685-1.449 0-0.509-0.132-0.922-0.395-1.239s-0.694-0.571-1.291-0.764l-2.424-0.843c-2.038-0.668-3.057-1.88-3.057-3.637 0-1.195 0.457-2.152 1.37-2.872s2.091-1.080 3.531-1.080c1.388 0 2.68 0.281 3.874 0.843v2.952h-0.949c-0.193-0.773-0.588-1.405-1.186-1.897-0.58-0.492-1.3-0.738-2.161-0.738-0.685 0-1.239 0.158-1.66 0.474-0.404 0.316-0.606 0.729-0.606 1.239 0 0.966 0.536 1.643 1.608 2.029l2.793 1.001c1.828 0.668 2.741 1.862 2.741 3.584 0 1.265-0.465 2.275-1.397 3.031s-2.161 1.133-3.689 1.133zM118.6 25.412v-0.764c0.879-0.088 1.449-0.246 1.713-0.474 0.281-0.228 0.422-0.685 0.422-1.37v-14.362c0-0.545-0.079-0.905-0.237-1.080-0.158-0.193-0.474-0.29-0.949-0.29-0.246 0-0.544 0.026-0.896 0.079v-0.712l3.979-1.054h0.764v6.351c0 1.476-0.167 2.741-0.501 3.795l0.132 0.053c0.352-1.107 0.922-1.968 1.713-2.583 0.808-0.615 1.784-0.922 2.925-0.922 1.248 0 2.232 0.369 2.952 1.107 0.738 0.738 1.107 1.889 1.107 3.452v6.14c0 0.703 0.132 1.168 0.395 1.397 0.281 0.211 0.861 0.369 1.739 0.474v0.764h-6.456v-0.764c0.65-0.123 1.090-0.29 1.318-0.501 0.229-0.228 0.343-0.589 0.343-1.080v-6.035c0-1.001-0.237-1.748-0.712-2.24-0.474-0.509-1.115-0.764-1.924-0.764-1.405 0-2.415 0.615-3.031 1.845v6.931c0 0.668 0.115 1.116 0.343 1.344s0.685 0.395 1.37 0.501v0.764h-6.509zM146.026 23.804c-1.23 1.283-2.803 1.924-4.717 1.924s-3.496-0.641-4.744-1.924c-1.23-1.283-1.845-2.916-1.845-4.902 0-1.968 0.615-3.593 1.845-4.875 1.247-1.3 2.828-1.95 4.744-1.95s3.487 0.65 4.717 1.95c1.247 1.283 1.871 2.908 1.871 4.875 0 1.985-0.624 3.619-1.871 4.902zM137.804 18.903c0 3.742 1.168 5.613 3.505 5.613s3.505-1.871 3.505-5.613-1.169-5.613-3.505-5.613c-2.337 0-3.505 1.871-3.505 5.613zM148.968 31.341v-0.764c0.878-0.088 1.449-0.246 1.713-0.474 0.28-0.228 0.422-0.685 0.422-1.37v-13.282c0-0.422-0.097-0.72-0.29-0.896-0.176-0.193-0.474-0.29-0.896-0.29-0.211 0-0.58 0.018-1.107 0.053v-0.764l3.874-1.16h0.791v1.502c0 0.351-0.079 0.896-0.237 1.634l0.132 0.026c0.351-1.072 0.922-1.915 1.713-2.53 0.808-0.632 1.739-0.949 2.793-0.949 1.545 0 2.776 0.553 3.689 1.66 0.931 1.089 1.397 2.547 1.397 4.375 0 2.231-0.624 4.058-1.871 5.481-1.23 1.423-2.803 2.135-4.717 2.135-0.984 0-1.854-0.228-2.609-0.685v3.663c0 0.72 0.175 1.186 0.527 1.397 0.369 0.228 1.097 0.387 2.187 0.474v0.764h-7.511zM156.373 24.621c1.142 0 2.056-0.492 2.741-1.476 0.685-1.001 1.028-2.354 1.028-4.058 0-1.546-0.299-2.732-0.896-3.558-0.58-0.843-1.432-1.265-2.556-1.265-1.37 0-2.345 0.518-2.925 1.555v7.642c0.72 0.773 1.59 1.16 2.609 1.16zM168.012 25.016c-0.387 0.404-0.861 0.606-1.423 0.606s-1.046-0.202-1.449-0.606c-0.404-0.404-0.606-0.887-0.606-1.449s0.202-1.037 0.606-1.423c0.404-0.404 0.888-0.606 1.449-0.606 0.545 0 1.019 0.202 1.423 0.606 0.404 0.387 0.606 0.861 0.606 1.423s-0.202 1.045-0.606 1.449zM181.49 23.804c-1.229 1.283-2.802 1.924-4.717 1.924s-3.496-0.641-4.744-1.924c-1.229-1.283-1.845-2.916-1.845-4.902 0-1.968 0.616-3.593 1.845-4.875 1.248-1.3 2.829-1.95 4.744-1.95s3.488 0.65 4.717 1.95c1.248 1.283 1.871 2.908 1.871 4.875 0 1.985-0.623 3.619-1.871 4.902zM173.268 18.903c0 3.742 1.169 5.613 3.505 5.613s3.505-1.871 3.505-5.613-1.168-5.613-3.505-5.613c-2.336 0-3.505 1.871-3.505 5.613zM193.312 12.077c0.334 0 0.598 0.035 0.791 0.105v3.004h-0.501c-0.351-0.176-0.738-0.264-1.16-0.264-0.808 0-1.493 0.246-2.056 0.738-0.544 0.474-0.817 1.247-0.817 2.319v4.796c0 0.72 0.176 1.195 0.527 1.423 0.369 0.211 1.098 0.36 2.187 0.448v0.764h-7.511v-0.764c0.879-0.088 1.449-0.246 1.713-0.474 0.281-0.228 0.422-0.685 0.422-1.37v-7.352c0-0.422-0.096-0.72-0.29-0.896-0.175-0.193-0.491-0.29-0.949-0.29-0.175 0-0.527 0.018-1.054 0.053v-0.764l3.874-1.16h0.791v2.135c0 1.107-0.035 2.064-0.105 2.872h0.184l0.237-1.528c0.194-1.247 0.642-2.187 1.344-2.82 0.703-0.65 1.494-0.975 2.372-0.975zM206.825 13.869c-0.756 0-1.563-0.202-2.424-0.606l-0.105 0.158c1.388 0.474 2.082 1.528 2.082 3.162 0 1.318-0.509 2.381-1.528 3.189-1.001 0.808-2.301 1.212-3.9 1.212-0.685 0-1.362-0.088-2.029-0.264-0.931 0.105-1.397 0.518-1.397 1.239 0 0.738 0.641 1.151 1.924 1.239l4.243 0.237c2.759 0.141 4.137 1.23 4.137 3.268 0 1.353-0.598 2.512-1.792 3.479-1.194 0.984-3.013 1.476-5.455 1.476-1.757 0-3.154-0.299-4.19-0.896-1.036-0.58-1.555-1.318-1.555-2.214 0-1.353 0.914-2.266 2.741-2.741v-0.158c-0.65-0.193-1.16-0.518-1.528-0.975-0.351-0.457-0.527-0.984-0.527-1.581 0-0.562 0.193-1.080 0.58-1.555 0.387-0.492 0.949-0.861 1.687-1.107v-0.184c-0.703-0.369-1.256-0.87-1.66-1.502-0.404-0.65-0.606-1.379-0.606-2.187 0-1.318 0.509-2.389 1.528-3.215 1.019-0.843 2.319-1.265 3.9-1.265 0.791 0 1.52 0.105 2.187 0.316h4.691v1.476h-1.001zM199.025 19.192c0.474 0.562 1.115 0.843 1.924 0.843s1.449-0.281 1.924-0.843c0.474-0.58 0.712-1.458 0.712-2.635s-0.237-2.056-0.712-2.635c-0.474-0.597-1.115-0.896-1.924-0.896s-1.449 0.299-1.924 0.896c-0.474 0.58-0.712 1.458-0.712 2.635s0.237 2.056 0.712 2.635zM203.136 26.044l-4.454-0.211c-0.105 0-0.184-0.009-0.237-0.026-0.843 0.422-1.265 1.072-1.265 1.95 0 0.808 0.413 1.441 1.239 1.897 0.825 0.474 1.976 0.712 3.452 0.712 1.318 0 2.337-0.211 3.057-0.632s1.080-0.993 1.080-1.713c0-1.265-0.957-1.924-2.872-1.976z"></path>
</symbol>
<symbol id="icon-close_Icon" viewBox="0 0 32 32">
<path stroke-linejoin="round" stroke-linecap="round" stroke-miterlimit="4" stroke-width="5.3333" d="M28.444 3.556l-24.889 24.889M3.556 3.556l24.889 24.889"></path>
</symbol>
<symbol id="icon-indiebound-logo" viewBox="0 0 32 32">
<path d="M23.19 18.145c0.059 0.196-0.231 0.211-0.088 0.422 0.191-0.025 0.098-0.265 0.25-0.314-0.029-0.123 0.064-0.157 0.054-0.265-0.088 0.039-0.147 0.103-0.216 0.157z"></path>
<path d="M24.025 17.085c-0.103-0.010-0.118 0.108-0.069 0.157 0.074-0.015 0.093-0.069 0.069-0.157z"></path>
<path d="M22.994 19.102c0.005 0.025-0.005 0.039-0.010 0.059 0.039 0.034 0.079-0.010 0.083-0.049-0.025-0.005-0.039-0.025-0.074-0.010z"></path>
<path d="M23.396 17.782c-0.034 0.054-0.025 0.123 0.025 0.162 0.118-0.010 0.162-0.074 0.162-0.172-0.044-0.044-0.088 0.010-0.186 0.010z"></path>
<path d="M24.991 12.255c0.231-0.010-0.029-0.206 0 0z"></path>
<path d="M23.607 17.679c0.093 0 0.137-0.039 0.113-0.128-0.079-0.025-0.152 0.025-0.113 0.128z"></path>
<path d="M26.626 15.043c-0.157 0.221-0.216 0.52-0.378 0.741-0.152 0.648-0.525 1.129-0.736 1.737-0.029 0.020-0.064 0.039-0.103 0.054-0.133 0.334-0.368 0.589-0.481 0.937-0.407 0.555-0.658 1.198-1.026 1.777-0.083 0.133-0.186 0.236-0.265 0.373-0.241 0.422-0.506 0.888-0.8 1.301-0.353 0.496-0.545 0.805-0.947 1.217-0.108 0.113-0.221 0.241-0.358 0.348-0.005-0.123 0.118-0.147 0.152-0.245-0.020-0.231 0.245-0.319 0.162-0.545 0.152-0.177 0.005-0.221 0.152-0.398 0.039-0.044 0.079-0.206 0.108-0.236 0.182-0.108 0.285-0.157 0.211-0.402 0.162-0.029 0.123-0.26 0.157-0.339 0.113-0.118 0.147-0.29 0.319-0.363 0.010-0.083-0.044-0.088-0.059-0.142 0.162-0.196 0.324-0.398 0.388-0.668 0.29-0.147 0.255-0.535 0.491-0.717 0.015-0.363 0.358-0.476 0.344-0.864 0.049-0.029 0.098-0.054 0.157-0.079 0.020-0.025 0.005-0.083 0-0.128 0.137-0.079 0.123-0.265 0.27-0.334 0.191-0.54 0.594-0.918 0.756-1.477 0.054-0.025 0.079-0.074 0.137-0.093 0.010-0.054 0.005-0.113 0.015-0.167 0.162-0.186 0.304-0.388 0.353-0.663 0.304-0.27 0.388-0.702 0.697-0.972 0-0.059 0.044-0.088 0.034-0.152 0.226-0.206 0.334-0.496 0.466-0.771 0.044-0.054 0.113-0.088 0.147-0.152 0.020-0.005 0.034 0 0.039 0.015-0.069 0.52-0.363 0.864-0.402 1.404zM22.066 21.33c-0.020-0.255 0.186-0.476 0.211-0.751 0.034-0.074 0.103-0.118 0.118-0.201 0.083 0.329-0.245 0.633-0.329 0.952zM22.596 19.975c-0.020 0.137-0.074 0.245-0.157 0.339-0.039-0.103 0.054-0.255 0.098-0.348 0.029-0.010 0.034 0.010 0.059 0.010zM22.65 19.706c0.039 0.029 0.025 0.157-0.054 0.157-0.059-0.074 0-0.123 0.054-0.157zM21.472 21.448c-0.128-0.074-0.015-0.27 0.083-0.329 0.034-0.236 0.196-0.383 0.226-0.623 0.201-0.118 0.152-0.427 0.348-0.55 0.034-0.211 0.206-0.324 0.196-0.564 0.167-0.113 0.123-0.388 0.304-0.486-0.064-0.186 0.123-0.191 0.118-0.334 0.064 0.005 0 0.147 0.098 0.152-0.152 0.079-0.147 0.27-0.285 0.353 0.015 0.255-0.074 0.432-0.26 0.535 0.005 0.118-0.044 0.196-0.113 0.255 0.005 0.074 0.054 0.083 0.059 0.157-0.182 0.123-0.353 0.339-0.285 0.599-0.152 0.103-0.285 0.221-0.25 0.461-0.157 0.069-0.186 0.236-0.241 0.373zM21.374 20.648c-0.069-0.137-0.015-0.241 0.049-0.324 0.010-0.074-0.064-0.049-0.054-0.123 0.128-0.172 0.324-0.299 0.388-0.52l0.108-0.015c-0.191 0.309-0.28 0.687-0.491 0.982zM22.626 17.836c0.020-0.034 0.029-0.079 0.079-0.083 0.015 0.054-0.034 0.069-0.079 0.083zM21.212 18.591c0.098-0.628 0.52-1.016 0.643-1.629 0.221-0.221 0.255-0.574 0.442-0.825 0.005-0.074-0.005-0.064-0.020-0.147 0.388-0.535 0.594-1.212 1.016-1.723l0.054-0.010c0.034 0.167-0.133 0.182-0.059 0.378-0.201 0.25-0.324 0.555-0.412 0.893-0.334 0.422-0.393 1.060-0.717 1.492-0.010 0.334-0.299 0.54-0.29 0.839-0.152 0.172-0.285 0.358-0.466 0.51-0.015 0.103 0 0.231-0.133 0.241-0.010-0.010-0.025-0.025-0.059-0.020zM20.991 17.271c-0.074-0.137 0.177-0.236 0.020-0.393 0.147-0.324 0.29-0.648 0.353-1.031 0.221-0.363 0.442-0.731 0.702-1.065 0.079 0.079-0.103 0.221-0.142 0.314 0.034 0.128-0.029 0.182-0.034 0.285-0.157 0.054-0.108 0.265-0.25 0.334-0.010 0.344-0.27 0.501-0.27 0.854-0.157 0.206-0.177 0.52-0.378 0.702zM21.021 21.418c-0.079-0.074-0.108-0.211-0.098-0.299l0.074-0.010c0.034 0.074 0.029 0.221 0.025 0.309zM20.78 23.141c-0.049-0.093-0.108-0.177-0.118-0.319 0.074-0.069 0.211-0.196 0.319-0.103-0.088 0.128-0.093 0.314-0.201 0.422zM20.574 17.050c0.034-0.103 0.133-0.216 0.103-0.309 0.128-0.118 0.054-0.28 0.118-0.461 0.025-0.064 0.123-0.133 0.157-0.206 0.059-0.137 0.098-0.25 0.069-0.407 0.221-0.398 0.079-0.422 0.329-0.8l0.015 0.093c0.025-0.079 0.133-0.098 0.098-0.216-0.025-0.049-0.059 0.020-0.088 0.015 0.005-0.079 0.025-0.142 0.064-0.196 0.039-0.010 0.020 0.064 0.029 0.088 0.079 0.005 0.054-0.069 0.142-0.059 0.010 0.113-0.088 0.152-0.054 0.285 0.186-0.025 0.137-0.221 0.255-0.294 0.010-0.069-0.054-0.044-0.054-0.103 0.088 0 0.108-0.182 0.025-0.206 0.059-0.059 0.133-0.133 0.059-0.25 0.020 0.010 0.044 0.015 0.074 0.010-0.064-0.118-0.010-0.103-0.015-0.241-0.167 0.083-0.196 0.265-0.275 0.412 0.010 0.059 0.069 0.054 0.133 0.034-0.005 0.079-0.069 0.108-0.083 0.177-0.098-0.088-0.147 0.049-0.231 0.069-0.083-0.123 0.103-0.137 0.020-0.26 0.059 0 0.083-0.025 0.123-0.034 0.039-0.25 0.167-0.437 0.28-0.633 0.054-0.020 0.044 0.044 0.098 0.025 0.059-0.025 0.079-0.147 0.025-0.206-0.069 0.015-0.059 0.088-0.093 0.123-0.064 0-0.049-0.108-0.108-0.113-0.196 0.137-0.28 0.363-0.319 0.618-0.074 0.015-0.083 0.079-0.133 0.113-0.255 0.815-0.373 1.114-0.623 1.934-0.049 0.010-0.039 0.069-0.079 0.083-0.010 0.216-0.231 0.559-0.265 0.756-0.182-0.049 0.025-0.648-0.162-0.731-0.152-0.491 0.182-0.559 0.211-1.016 0.177-0.265 0.236-0.285 0.309-0.623 0.304-0.491 0.481-1.075 0.8-1.561-0.010-0.083 0.029-0.128 0.005-0.221 0.069-0.059 0.118-0.128 0.177-0.191-0.029-0.098 0.054-0.113 0.049-0.191 0.231-0.26 0.398-0.564 0.481-0.937 0.147-0.147 0.255-0.437 0.388-0.668 0.069-0.118 0.186-0.152 0.157-0.339 0.054-0.005 0.064-0.049 0.103-0.069 0.137-0.358 0.319-0.682 0.55-0.967 0-0.206 0.236-0.236 0.191-0.471 0.157-0.226 0.309-0.461 0.456-0.697-0.015-0.064 0.005-0.103 0.015-0.152 0.186-0.103 0.255-0.294 0.319-0.491 0.618-0.098 0.402 0.501 0.402 0.888-0.054-0.010-0.044 0.034-0.088 0.029 0.044 0.27-0.221 0.393-0.133 0.648-0.093 0.083-0.226 0.201-0.133 0.373-0.074 0.049-0.113 0.123-0.182 0.172l0.020 0.128c-0.206 0.285-0.314 0.638-0.476 0.957 0.005 0.029 0 0.069 0.029 0.069-0.054 0.093-0.137 0.167-0.206 0.25-0.015 0.304-0.245 0.447-0.309 0.712 0.005 0.137-0.010 0.25-0.044 0.358-0.113 0.015-0.245-0.083-0.329 0.029 0.025 0.059 0.093 0.054 0.142 0.074-0.088 0.52-0.353 0.903-0.555 1.34-0.128-0.113 0.015-0.358-0.162-0.476-0.142 0.049-0.236 0.137-0.28 0.26 0.015 0.069 0.093 0.034 0.054 0.123 0.054-0.010 0.108 0.020 0.172 0.049 0.064 0.191-0.098 0.275 0.010 0.447-0.118 0.201-0.157 0.466-0.378 0.594-0.108 0.231-0.28 0.417-0.393 0.648-0.054 0.020-0.069-0.010-0.113-0.005 0.020 0.245-0.393 0.29-0.221 0.55-0.319 0.618-0.368 0.726-0.55 1.448-0.064-0.020-0.074-0.123-0.123-0.177zM20.157 18.513c-0.201 0.201-0.452 0.304-0.741 0.304-0.285 0-0.53-0.103-0.736-0.309s-0.309-0.452-0.309-0.736c0-0.29 0.103-0.54 0.304-0.741s0.452-0.304 0.741-0.304c0.29 0 0.54 0.103 0.741 0.304s0.304 0.452 0.304 0.741c0 0.294-0.098 0.54-0.304 0.741zM18.817 15.166c0.049 0.093-0.029 0.196-0.054 0.285-0.029-0.049-0.074-0.079-0.108-0.113 0.005-0.088 0.039-0.226 0.162-0.172zM19.391 15.534l-0.010-0.074c0.064-0.025 0.079 0.074 0.010 0.074zM21.512 12.191c-0.005 0.034-0.123 0.093-0.113-0.005 0.044-0.010 0.088-0.015 0.113 0.005zM19.494 14.847c0.020-0.373 0.368-0.559 0.29-0.952 0.285-0.29 0.299-0.785 0.589-1.065 0.142-0.309 0.334-0.584 0.422-0.932 0.245-0.196 0.265-0.559 0.506-0.756 0.358-0.712 0.869-1.306 1.301-1.963 0.064-0.005 0.059-0.064 0.118-0.074 0.236-0.412 0.599-0.731 0.923-1.075 0.064 0.010 0.015 0.034 0.029 0.088-0.304 0.147-0.29 0.53-0.53 0.726l0.020 0.128c-0.157 0.128-0.319 0.334-0.294 0.545-0.093 0-0.118 0.049-0.172 0.079-0.034 0.339-0.373 0.447-0.368 0.815-0.167 0.083-0.28 0.201-0.236 0.442-0.133 0.083-0.113 0.285-0.285 0.339-0.015 0.059 0.005 0.064 0.020 0.128-0.265 0.309-0.447 0.682-0.653 1.036 0.044 0.182 0.108 0.398 0.025 0.555-0.069 0.005-0.059-0.093-0.157-0.054-0.025 0.010-0.025 0.034-0.049 0.044 0.255 0.368-0.373 0.427-0.334 0.79-0.020 0.039-0.083 0.044-0.118 0.074 0.005 0.044 0.039 0.049 0.034 0.108-0.191 0.079-0.191 0.285-0.152 0.506-0.133 0.088-0.28 0.157-0.245 0.368-0.054 0.020-0.044-0.044-0.098-0.025-0.049 0.113 0.049 0.187 0.088 0.245-0.074 0.020-0.088 0.098-0.177 0.064-0.010 0.079 0.015 0.142 0.020 0.255-0.064 0.069-0.196 0.079-0.216 0.177 0.010 0.054 0.054 0.054 0.069 0.103-0.074 0.074-0.069 0.211-0.231 0.216 0.039-0.27-0.123-0.471-0.226-0.672 0.034-0.093 0.005-0.221 0.088-0.26zM22.557 14.601c0.005 0.079-0.059 0.162-0.108 0.147-0.005-0.079 0.059-0.167 0.108-0.147zM22.552 14.547c0.005-0.177 0.034-0.334 0.186-0.398 0.083-0.299 0.29-0.51 0.471-0.736 0.029-0.010 0.034 0.010 0.044 0.029-0.093 0.28-0.353 0.427-0.398 0.741-0.133 0.103-0.167 0.27-0.304 0.363zM25.050 6.665l-0.015-0.108c0.093-0.010 0.088-0.088 0.128-0.128-0.005-0.059-0.059-0.054-0.054-0.123 0.069-0.015 0.113 0.059 0.167-0.005 0.064-0.044 0.029-0.074 0.015-0.152 0.196-0.059 0.172-0.285 0.358-0.348-0.020-0.054 0.025-0.069 0-0.128 0.128-0.088 0.236-0.191 0.245-0.368 0.123-0.044 0.191-0.128 0.245-0.221-0.010-0.079-0.064-0.113-0.044-0.182 0.029-0.049 0.093 0.020 0.123-0.034 0.034-0.029 0.029-0.088 0.034-0.137 0.103-0.049 0.177-0.118 0.191-0.231 0.186-0.083 0.294-0.221 0.393-0.373 0.182-0.005 0.206-0.167 0.378-0.088-0.044 0.133-0.128 0.309-0.064 0.471-0.157 0.113-0.255 0.344-0.196 0.564-0.221 0.265-0.28 0.658-0.456 0.957-0.005 0.059 0.039 0.049 0.034 0.108-0.152 0.108-0.128 0.348-0.167 0.545-0.196 0.118-0.231 0.358-0.27 0.594-0.083 0.034-0.044 0.108-0.083 0.177-0.020 0.029-0.083 0.044-0.098 0.088-0.039 0.103-0.025 0.245-0.064 0.344-0.025 0.064-0.103 0.103-0.123 0.167-0.039 0.113-0.034 0.191-0.088 0.309-0.108 0.245-0.226 0.525-0.255 0.834-0.069 0.025-0.103 0.074-0.128 0.128-0.034 0.584-0.476 0.864-0.476 1.477-0.275 0.275-0.241 0.785-0.579 1.011-0.010 0.088 0.059 0.064 0.059 0.142-0.049 0.025-0.049-0.020-0.093-0.005-0.172 0.28-0.447 0.476-0.574 0.785-0.074 0.029-0.123 0.083-0.206 0.103-0.015 0.221-0.157 0.348-0.324 0.456-0.005-0.093 0.069-0.133 0.123-0.187-0.039-0.255 0.196-0.304 0.142-0.574 0.088-0.044 0.113-0.133 0.216-0.162 0.005-0.221 0.133-0.358 0.064-0.584l0.093-0.015c0.103-0.177 0.255-0.319 0.275-0.559 0.044-0.005 0.054-0.034 0.088-0.049-0.069-0.304 0.299-0.496 0.241-0.795 0.314-0.142 0.069-0.638 0.432-0.766-0.069-0.353 0.182-0.471 0.167-0.785 0.054-0.093 0.167-0.226 0.186-0.398 0.015-0.147-0.039-0.319-0.029-0.461 0.005-0.074 0.083-0.182 0.074-0.25-0.015-0.191-0.231-0.177-0.236-0.358-0.049-0.064-0.123-0.098-0.216-0.098 0.108-0.201 0.167-0.452 0.368-0.589zM24.216 14.253c0.069-0.020 0.108 0 0.152 0.015-0.039 0.152-0.191 0.226-0.265 0.353 0.015 0.025 0.034 0.044 0.049 0.069-0.118 0.231-0.275 0.432-0.388 0.668-0.049 0.020-0.044-0.029-0.079-0.025 0.069-0.113 0.079-0.319 0.020-0.393 0.059 0.020 0.093-0.010 0.142-0.039 0.079-0.245 0.285-0.398 0.368-0.648zM23.131 16.8c0.005-0.054 0.005-0.103 0.079-0.103l0.010 0.074c-0.020 0.020-0.049 0.029-0.088 0.029zM24.702 14.798c0.314-0.187 0.52-0.452 0.731-0.717 0.398-0.26 0.668-0.614 1.227-0.751 0 0.025 0.005 0.054 0.025 0.054-0.088 0.241-0.324 0.373-0.353 0.663-0.236 0.339-0.51 0.643-0.668 1.040-0.034 0.020-0.079 0.039-0.103 0.069-0.005 0.079 0.015 0.074 0.005 0.147-0.324 0.226-0.368 0.668-0.609 0.957-0.064 0.015-0.074-0.044-0.133-0.034-0.079 0.029-0.049 0.137-0.172 0.098-0.147 0.226-0.383 0.383-0.569 0.579 0.005 0.054 0.029 0.088 0.069 0.103 0.147-0.069 0.221-0.191 0.393-0.241-0.29 0.746-0.751 1.364-1.075 2.081-0.064 0.059-0.103 0.137-0.137 0.221-0.044 0.025-0.059 0.074-0.118 0.088-0.010 0.172-0.074 0.304-0.206 0.383-0.005-0.034-0.054-0.015-0.049-0.069 0.020-0.083 0.162-0.074 0.162-0.172-0.015-0.054-0.044-0.083-0.088-0.098-0.152 0.142-0.196 0.358-0.358 0.496-0.010-0.113 0.123-0.177 0.029-0.299 0.157-0.098 0.196-0.285 0.27-0.447 0.079-0.025 0.049 0.093 0.123 0.074 0.034-0.074 0.118-0.108 0.162-0.172 0-0.059-0.034-0.074-0.069-0.083-0.098-0.005-0.064 0.093-0.133 0.113-0.083-0.093 0.064-0.128 0.020-0.245-0.059-0.049-0.088 0.064-0.182 0.044 0.015-0.133 0.083-0.221 0.079-0.363 0-0.069-0.088-0.025-0.118-0.059-0.010-0.098 0.059-0.034 0.108-0.034 0.074-0.088 0.123-0.201 0.098-0.368 0.137-0.133 0.142-0.358 0.182-0.564 0.236-0.319 0.314-0.761 0.491-1.129 0.083-0.069 0.123-0.167 0.123-0.294 0.196-0.417 0.658-0.643 0.844-1.070zM18.002 18.591c-0.123-0.182-0.28-0.319-0.373-0.54-0.216-0.152-0.123-0.285-0.353-0.417-0.236-0.579-0.712-0.839-0.913-1.468-0.020-0.039-0.064-0.049-0.103-0.059-0.039-0.466-0.196-0.79-0.461-1.045 0.172-0.275-0.265-0.378-0.162-0.628-0.093-0.079-0.157-0.167-0.118-0.314-0.025-0.074-0.079-0.108-0.147-0.128 0.005-0.231-0.157-0.383-0.187-0.55 0.28 0.142 0.452 0.422 0.712 0.584l0.015 0.093c0.589 0.481 0.957 1.261 1.418 1.914 0.044 0.211 0.147 0.334 0.265 0.447l0.020 0.128c0.196 0.172 0.083 0.324 0.241 0.545 0.010 0.353 0.329 0.869 0.152 1.202 0.044 0.079 0.025 0.162-0.005 0.236zM17.168 18.199c-0.147-0.191-0.304-0.402-0.466-0.658-0.049-0.074-0.044-0.147-0.034-0.255 0.324 0.294 0.51 0.775 0.82 1.090 0.005 0.059 0.044 0.074 0.039 0.142 0.093 0.103 0.196 0.196 0.221 0.393-0.236-0.157-0.378-0.447-0.579-0.712zM17.669 22.248c-0.113-0.015-0.177-0.093-0.216-0.211 0.133-0.010 0.191 0.079 0.216 0.211zM17.865 22.881c0.025 0.128 0.049 0.128 0.034 0.25-0.241-0.054-0.373-0.25-0.535-0.402 0.191-0.103 0.294 0.177 0.501 0.152zM16.334 17.978c0.486 0.334 0.721 0.996 0.957 1.664-0.358-0.501-0.677-1.060-0.957-1.664zM16.118 19.926c0.177-0.020 0.221-0.137 0.28-0.245-0.064-0.088-0.118 0.059-0.186 0.010-0.015-0.064 0.079-0.049 0.059-0.118-0.098-0.108-0.196-0.28-0.368-0.226 0.049-0.206-0.142-0.491-0.309-0.604-0.020-0.069 0.039-0.079 0.015-0.152-0.029-0.059-0.147-0.005-0.206-0.025-0.049-0.064 0.029-0.196-0.098-0.172 0.015-0.133-0.054-0.285-0.172-0.309-0.275-0.648-0.618-1.207-0.879-1.88 0.221 0.088 0.299 0.363 0.496 0.486 0.177 0.486 0.506 0.771 0.771 1.134 0.069 0.275 0.216 0.452 0.383 0.594 0.167 0.456 0.506 0.687 0.618 1.212 0.069 0.093 0.147 0.241 0.069 0.363 0.152 0.113 0.299 0.344 0.339 0.545-0.044 0.049-0.079-0.044-0.133-0.034-0.034 0.044-0.049 0.113-0.015 0.167 0.079 0.034 0.108-0.029 0.157-0.059 0.064 0.186 0.206 0.363 0.27 0.609-0.442-0.329-0.844-0.707-1.090-1.296zM16.059 19.769c-0.088-0.005-0.133-0.069-0.137-0.186 0.079-0.020 0.103 0.039 0.172 0.029 0.015 0.074-0.025 0.103-0.034 0.157zM15.092 19.627c0.059-0.010 0.123-0.020 0.118 0.059-0.059 0.005-0.118 0.015-0.118-0.059zM14.685 19.092c-0.103 0 0.015-0.162-0.064-0.196 0.044-0.059 0.137 0.147 0.064 0.196zM14.434 18.793c0.005-0.029 0.020-0.049 0.025-0.079 0.064 0 0.054 0.088-0.025 0.079zM15.298 17.021c-0.059-0.005-0.098-0.029-0.108-0.098 0.059 0.005 0.098 0.029 0.108 0.098zM15.74 17.664c-0.113-0.182-0.265-0.309-0.353-0.525 0.187 0.069 0.319 0.324 0.353 0.525zM13.953 15.244c-0.025-0.201-0.167-0.241-0.255-0.353 0.029-0.083-0.059-0.172 0.005-0.241-0.103-0.083-0.196-0.275-0.093-0.393-0.113-0.226-0.216-0.555-0.172-0.81-0.098-0.28-0.182-0.535-0.226-0.82-0.029-0.172-0.206-0.339-0.093-0.525 0-0.108-0.054-0.147-0.069-0.231 0.069-0.123-0.029-0.275-0.034-0.383 0.093-0.329 0.491-0.221 0.756-0.162 0.020 0.059 0.069 0.079 0.108 0.113-0.034 0.236 0.128 0.398 0.069 0.618-0.108 0.059-0.216 0.172-0.314 0.285 0.216 0.78 0.535 1.428 0.815 2.071 0.059 0.083 0.172 0.088 0.26 0.133-0.015 0.059-0.025 0.123-0.069 0.157 0.226 0.353 0.393 0.756 0.506 1.094-0.054 0.191 0.054 0.432 0.167 0.535 0.020 0.26 0.177 0.329 0.191 0.55-0.093-0.049-0.191-0.103-0.167-0.255-0.044-0.123-0.216-0.074-0.299-0.142-0.044-0.088-0.025-0.255-0.147-0.241 0.010-0.039 0.049-0.064 0.039-0.118-0.039-0.054-0.133-0.039-0.177-0.088 0.049-0.187-0.152-0.152-0.236-0.226-0.025-0.059 0.015-0.074 0-0.128-0.039-0.059-0.113-0.069-0.196-0.064-0.069-0.206-0.25-0.245-0.368-0.378zM13.89 16.903c-0.010-0.015-0.025-0.025-0.025-0.054 0.015-0.015 0.039-0.025 0.069-0.029 0.015 0.049 0.005 0.083-0.044 0.083zM13.703 16.373c-0.039-0.010-0.083-0.044-0.049-0.083 0.039 0.010 0.074 0.054 0.049 0.083zM13.526 16.029c-0.039-0.054-0.074-0.108-0.147-0.108-0.054-0.275-0.28-0.319-0.309-0.623-0.231-0.088-0.226-0.496-0.422-0.628l-0.128 0.020c0.010-0.147-0.039-0.353-0.167-0.383 0.029-0.157-0.093-0.27-0.226-0.285-0.034-0.059 0.069-0.098 0-0.128 0.039-0.064 0.098 0.029 0.152 0.015 0.054 0.187 0.172 0.29 0.344 0.324 0.201 0.334 0.471 0.584 0.731 0.844-0.010 0.393 0.294 0.815 0.299 1.198-0.029-0.025-0.054-0.059-0.103-0.059l-0.025-0.186zM14.479 12.928c0.137 0.059 0.147 0.294 0.211 0.452-0.064-0.147-0.25-0.309-0.211-0.452zM14.699 13.433c0.029 0.025 0.049 0.064 0.054 0.123-0.044-0.010-0.088-0.079-0.054-0.123zM15.014 12.663c-0.069-0.074-0.187-0.083-0.245-0.167 0.044-0.157-0.059-0.236-0.167-0.255 0.005-0.069 0.088-0.162 0.025-0.226 0.064-0.039 0.172 0.044 0.25 0.059 0.039 0.182 0.226 0.241 0.329 0.363 0.133 0.152 0.187 0.398 0.417 0.442 0.172 0.231 0.339 0.471 0.54 0.668 0.020 0.025 0.049 0.034 0.098 0.025 0.015 0.064 0.015 0.118 0.005 0.167-0.26-0.029-0.29-0.358-0.54-0.407-0.074-0.221-0.255-0.294-0.427-0.383-0.059-0.123-0.162-0.187-0.304-0.196 0.020-0.025-0.010-0.079 0.020-0.088zM12.952 11.195c-0.029-0.172 0.039-0.461-0.079-0.545 0.074-0.088 0.010-0.177 0.010-0.314-0.005-0.079-0.108-0.029-0.108-0.113 0.088-0.010 0.118-0.226-0.010-0.201 0.079-0.093 0.113-0.285 0.015-0.412-0.020-0.069 0.049-0.074 0.059-0.118-0.147-0.285 0.098-0.476-0.039-0.79 0.064-0.054 0.088-0.142 0.118-0.221-0.005-0.054-0.010-0.098-0.069-0.083 0.137-0.324 0.447-0.034 0.702-0.025 0.069 0.191 0.236 0.245 0.304 0.437 0.339 0.216 0.452 0.736 0.8 0.942 0.005 0.049 0 0.088-0.020 0.113 0.108 0.088 0.285 0.241 0.226 0.412 0.353 0.26 0.383 0.795 0.721 1.045-0.010 0.044-0.044 0.079-0.059 0.118 0.020 0.064 0.074 0.088 0.113 0.133 0.196 0.52 0.545 1.016 0.746 1.6-0.206 0-0.142-0.358-0.412-0.275 0.005-0.216-0.118-0.373-0.329-0.363-0.059-0.074 0.015-0.093-0.010-0.187-0.093-0.152-0.221-0.255-0.393-0.294-0.049-0.147-0.137-0.236-0.309-0.216-0.054-0.039 0.015-0.059 0.005-0.113-0.083-0.074-0.152-0.172-0.285-0.182-0.039-0.157-0.177-0.182-0.309-0.216-0.083-0.177-0.25-0.241-0.432-0.29-0.069 0-0.079 0.049-0.098 0.088-0.236-0.128-0.604-0.083-0.859 0.069zM16.53 14.081c-0.059-0.025-0.147-0.010-0.147-0.108 0.083-0.005 0.147 0.010 0.147 0.108zM16.623 14.218c0.025 0.079-0.088 0.079-0.074-0.010 0.034-0.005 0.044 0.020 0.074 0.010zM12.010 18.415c-0.015-0.054 0.005-0.083 0.064-0.083l0.010 0.074-0.074 0.010zM13.016 18.047c-0.020-0.029-0.059-0.039-0.054-0.103l0.147-0.020c0.025 0.083-0.025 0.113-0.093 0.123zM27.391 4.088c-0.083-0.005-0.137-0.044-0.152-0.147 0.074 0.015 0.162 0.093 0.152 0.147zM27.239 11.529c-0.064-0.020-0.142-0.025-0.196-0.064 0.039-0.029 0.088-0.054 0.054-0.137-0.182-0.069-0.437-0.034-0.594-0.137-0.177 0.118-0.452 0.079-0.672 0.113-0.010 0.216-0.265 0.245-0.329 0.417-0.015-0.025-0.044-0.029-0.079-0.025-0.025 0.025 0.005 0.088-0.044 0.098-0.069 0.010-0.064-0.069-0.152-0.034-0.039 0.123-0.172 0.172-0.177 0.324 0.177 0.059 0.265-0.206 0.486-0.216 0.025-0.034 0.029-0.088 0.059-0.118 0.255-0.103 0.432-0.26 0.717-0.304 0.883-0.147 0.952 0.839 0.795 1.556-0.079-0.25-0.378-0.241-0.486-0.025-0.064-0.020-0.133-0.029-0.206-0.025-0.108 0.118-0.319 0.162-0.363 0.329-0.241 0.079-0.324 0.28-0.501 0.402-0.059 0.015-0.103 0.010-0.147 0.005-0.118 0.236-0.348 0.388-0.491 0.609-0.025-0.020-0.069-0.010-0.113-0.005-0.020 0.157-0.172 0.216-0.25 0.334-0.049-0.020-0.113-0.020-0.142-0.074 0.093-0.103 0.059-0.304 0.147-0.412 0.005-0.069-0.049-0.064-0.054-0.123 0.074-0.128 0.167-0.28 0.054-0.417-0.245 0.005-0.201 0.226-0.344 0.309 0 0.108 0.113 0.064 0.118 0.167-0.079-0.005-0.069-0.064-0.152-0.015-0.015 0.108-0.015 0.226-0.152 0.245-0.039 0-0.044-0.044-0.064-0.064 0.015-0.172 0.172-0.241 0.098-0.476 0.236-0.344 0.324-0.795 0.564-1.139 0.177-0.049 0.177-0.236 0.329-0.304-0.005-0.088-0.074-0.088-0.079-0.172 0.098-0.304 0.319-0.515 0.358-0.869 0.054-0.015 0.098-0.034 0.142-0.059-0.015-0.064-0.034-0.064-0.020-0.128 0.216-0.172 0.373-0.466 0.314-0.785-0.211-0.010-0.255 0.133-0.447 0.118 0.005-0.064 0.039-0.103 0.010-0.187 0.093-0.103 0.152-0.231 0.167-0.393 0.231-0.491 0.373-1.055 0.638-1.517 0.015-0.314 0.137-0.545 0.28-0.761 0-0.216 0.142-0.329 0.206-0.491-0.044-0.177 0.025-0.26 0.118-0.334 0.005-0.044 0.015-0.088-0.005-0.147 0.206-0.191 0.157-0.574 0.334-0.79-0.010-0.255 0.133-0.398 0.236-0.569-0.015-0.074 0.010-0.123 0.010-0.186 0.064-0.034 0.103-0.088 0.147-0.133 0.020-0.407 0.265-0.643 0.236-1.090-0.015 0-0.025-0.015-0.025-0.034-0.314-0.108-0.574-0.088-0.78 0.108-0.064 0.064-0.083 0.162-0.152 0.226-0.118 0.108-0.265 0.157-0.373 0.255-0.005 0.034 0 0.079-0.025 0.098-0.059 0.029-0.113 0.064-0.172 0.098-0.049 0.206-0.191 0.344-0.319 0.491 0.010 0.304-0.285 0.383-0.442 0.564l0.015 0.093c-0.275 0.28-0.555 0.638-0.775 0.942-0.083 0.118-0.123 0.216-0.152 0.353-0.147 0.049-0.152 0.25-0.211 0.329-0.098 0.128-0.373 0.201-0.452 0.344-0.162 0.025-0.245 0.108-0.368 0.162-0.010 0.054-0.029 0.098-0.034 0.152-0.069 0.044-0.128 0.098-0.162 0.172-0.255 0.093-0.226 0.393-0.51 0.461-0.186 0.275-0.358 0.564-0.672 0.746 0.005 0.059-0.029 0.088-0.015 0.152-0.334 0.275-0.432 0.726-0.746 1.016-0.098 0.363-0.383 0.589-0.579 0.879-0.098 0.422-0.432 0.672-0.594 1.050l0.020 0.128c-0.074 0.128-0.231 0.191-0.226 0.383-0.113 0.079-0.157 0.206-0.172 0.358-0.201 0.201-0.309 0.471-0.353 0.79-0.142 0.079-0.137 0.265-0.245 0.368-0.005 0.069 0.069 0.103 0 0.128-0.186-0.054-0.201-0.339-0.452-0.304-0.059 0.015-0.054 0.079-0.118 0.088-0.054-0.005-0.059-0.079-0.137-0.054-0.186 0.182-0.074 0.447-0.049 0.692 0.020 0.221-0.020 0.486-0.010 0.726 0.010 0.167 0.098 0.324 0.010 0.461-0.358-0.584-0.702-1.252-1.050-1.782-0.020-0.373-0.348-0.697-0.393-1.075-0.034-0.044-0.157 0.029-0.167 0.005 0.015-0.059 0.103-0.064 0.093-0.142-0.088-0.044-0.044-0.128-0.074-0.25-0.098-0.074-0.157-0.196-0.226-0.299 0.005-0.044 0.064-0.049 0.039-0.118-0.133-0.118-0.123-0.339-0.314-0.402 0.015-0.206-0.054-0.466-0.241-0.52 0.010-0.054 0.039-0.103 0.010-0.187-0.025-0.034-0.074-0.034-0.103-0.059-0.025-0.059 0.015-0.074 0-0.128-0.27-0.329-0.388-0.849-0.697-1.124-0.005-0.044 0.025-0.059 0.005-0.113-0.172-0.167-0.216-0.373-0.329-0.604-0.079-0.029-0.147-0.064-0.216-0.098-0.152-0.481-0.471-0.741-0.682-1.144-0.108 0.005-0.142-0.098-0.221-0.137-0.039-0.044-0.079 0.049-0.142 0.039-0.025-0.049 0.020-0.049 0.005-0.093-0.088-0.039-0.196-0.054-0.304-0.069-0.093 0.098-0.245 0.167-0.422 0.152-0.064 0.147-0.255 0.196-0.26 0.388 0.039 0.059 0.088-0.020 0.133 0.020-0.034 0.059-0.020 0.162-0.064 0.211-0.015-0.059-0.039-0.108-0.108-0.098-0.079 0.064-0.015 0.137 0.044 0.182-0.044 0.103 0.025 0.29-0.123 0.314 0.039 0.152-0.118 0.196-0.054 0.417 0.025 0.054 0.098 0.039 0.123 0.093-0.054 0.044-0.137 0.074-0.123 0.167 0.049 0.025 0.074 0.074 0.093 0.137-0.005 0.049-0.079 0.049-0.098 0.088-0.029 0.196 0.069 0.461-0.025 0.614 0.162 0.123 0.245 0.515 0.133 0.687 0.133 0.147-0.059 0.353 0.118 0.447-0.118 0.093-0.088 0.29-0.142 0.427 0.255 0.26 0.142 1.006 0.348 1.413-0.044 0.142 0.074 0.358 0.074 0.51-0.128-0.064-0.211-0.182-0.299-0.29-0.069-0.005-0.118 0.093-0.182 0.044 0.010-0.069 0.074-0.093 0.069-0.177-0.241-0.442-0.672-0.628-0.898-1.094-0.152-0.039-0.216-0.187-0.27-0.353-0.093-0.020-0.152-0.088-0.206-0.157-0.118 0.044-0.147 0.020-0.241-0.005-0.265 0.373 0.324 0.633 0.324 0.991 0.039 0.025 0.093 0.039 0.108 0.098 0.172 0.393 0.407 0.702 0.579 1.085 0.034 0.034 0.074 0.059 0.108 0.098 0.029 0.25 0.226 0.28 0.245 0.54 0.196 0.142 0.241 0.486 0.442 0.623 0.074 0.304 0.28 0.437 0.348 0.746 0.157 0.088 0.216 0.299 0.324 0.456 0.020 0.324 0.314 0.402 0.319 0.677-0.103-0.074-0.221-0.123-0.28-0.255-0.25 0.049-0.309-0.147-0.476-0.211 0-0.358-0.452-0.221-0.687-0.128 0.029 0.113 0.108 0.157 0.196 0.196 0.064 0-0.005-0.098 0.039-0.118 0.118 0.064 0.241 0.103 0.373 0.152 0.29 0.103 0.574 0.417 0.82 0.535 0.034 0.020 0.083 0 0.113 0.020 0.015 0.010 0.020 0.074 0.054 0.103 0.113 0.103 0.26 0.079 0.201 0.25 0.128 0.186 0.324 0.393 0.368 0.618-0.304-0.025-0.353-0.304-0.545-0.442-0.083 0.025 0.044 0.113-0.034 0.133-0.020-0.123-0.142-0.113-0.133-0.28-0.029-0.020-0.083-0.005-0.133 0-0.005-0.034 0.044-0.029 0.025-0.079-0.182-0.049-0.221-0.285-0.447-0.27-0.005-0.093-0.074-0.103-0.098-0.172-0.103 0.049-0.206-0.005-0.226 0.108-0.069-0.010-0.079-0.098-0.113-0.152 0.029-0.025 0.083-0.034 0.059-0.103-0.128-0.025-0.201-0.191-0.211-0.304-0.128 0.054-0.177 0.083-0.344 0.069-0.034 0.044 0.044 0.093-0.020 0.133-0.069-0.064-0.098-0.177-0.113-0.26-0.020 0-0.049 0.010-0.059-0.010-0.103 0.044-0.083 0.142-0.142 0.186 0.088 0.147 0.299 0.133 0.344 0.339 0.167 0.064 0.304 0.167 0.432 0.29-0.029 0.118 0.074 0.191 0.147 0.241-0.005 0.039-0.039 0.059-0.020 0.113 0.069 0.054 0.098 0.157 0.113 0.28 0.044 0.049 0.093 0.093 0.133 0.147l0.015 0.108c0.162 0.093 0.25 0.476 0.461 0.363-0.098-0.142-0.285-0.211-0.25-0.466-0.054-0.029-0.133-0.025-0.162-0.088 0.005-0.113 0.162-0.005 0.167-0.118-0.133-0.020-0.226-0.088-0.29-0.201 0.329-0.098 0.535 0.152 0.712 0.324 0.059 0 0.152-0.044 0.167 0.015 0.015 0.074-0.020 0.108 0.025 0.162 0.069 0.005 0.133 0.025 0.206 0.025 0.064 0.098 0.074 0.152 0.098 0.285 0.020 0.049 0.098 0.029 0.123 0.074 0.064 0.196 0.231 0.255 0.368 0.358-0.029 0.039 0.005 0.044 0.015 0.088 0.133 0.064 0.206 0.201 0.319 0.29 0.133 0.373 0.559 0.535 0.726 0.937 0.299 0.26 0.491 0.658 0.766 0.947 0.010 0.074 0.103 0.152 0.069 0.211-0.329-0.147-0.677-0.265-0.913-0.54-0.064-0.236-0.27-0.29-0.427-0.402-0.108-0.206-0.26-0.344-0.422-0.476-0.133-0.476-0.525-0.613-0.717-1.011-0.083-0.029-0.162-0.059-0.206-0.137 0.015-0.034 0.093-0.025 0.059-0.103 0-0.054-0.098 0.029-0.098-0.025 0.034-0.118-0.049-0.245-0.196-0.196 0.015 0.098-0.113 0.147-0.113 0.241 0 0.211 0.172 0.182 0.265 0.294 0.034 0.044 0.029 0.108 0.059 0.157 0.142 0.221 0.407 0.363 0.432 0.55 0.069 0.020 0.167 0.108 0.123 0.206-0.422-0.226-0.692-0.653-1.109-0.883-0.28-0.319-0.55-0.653-0.903-0.874-0.137-0.368-0.501-0.432-0.648-0.78-0.034-0.025-0.088-0.029-0.118-0.059-0.167-0.236-0.353-0.452-0.584-0.604-0.025-0.142-0.088-0.231-0.201-0.25-0.059 0.039 0 0.162-0.064 0.196-0.098-0.088-0.020-0.196-0.005-0.294 0.123-0.020 0.211 0.005 0.339 0.025 0.177 0.201 0.471 0.196 0.692 0.29 0.093-0.137-0.025-0.29-0.079-0.417-0.162 0.025-0.196-0.113-0.285-0.182-0.196 0.015-0.412-0.182-0.648-0.113-0.083-0.074-0.201-0.103-0.299-0.162-0.152 0.069-0.324 0.083-0.491 0.201-0.029 0.044 0.005 0.133 0.010 0.201 0.133 0.054 0.191 0.201 0.363 0.206 0.093 0.049-0.044 0.108 0.025 0.182 0.015 0.054 0.098 0.010 0.118 0.059-0.034 0.137 0.123 0.172 0.216 0.211 0.025 0.074-0.015 0.098 0.005 0.167 0.128 0.034 0.177 0.172 0.275 0.241 0.059 0.010 0.029-0.054 0.064-0.064 0.015-0.069-0.108-0.069-0.054-0.123 0.137 0.098 0.255 0.226 0.29 0.461 0.079 0.044 0.191 0.049 0.27 0.093-0.015 0.059-0.074 0.088-0.049 0.172 0.137 0.049 0.191 0.265 0.393 0.167 0.025 0.098 0.069 0.167 0.123 0.226-0.025 0.172 0.064 0.26 0.25 0.206 0.152 0.064 0.211 0.25 0.358 0.319l0.015 0.108c0.049 0.025 0.128 0.015 0.142 0.093-0.005 0.074-0.083 0.118-0.029 0.191 0.079 0.025 0.133-0.039 0.206 0.010-0.059 0.186 0.177 0.28 0.285 0.182 0.118 0.025 0.157 0.157 0.113 0.28 0.049 0.123 0.216 0.083 0.241 0.245 0.167 0.064 0.368 0.088 0.417 0.314l0.147-0.020c0.049 0.098 0.118 0.172 0.187 0.25 0.103 0.005 0.098-0.079 0.177-0.044 0.064 0.074-0.049 0.157 0.034 0.236 0.088 0.010 0.069-0.069 0.157-0.059-0.088 0.211 0.152 0.334 0.314 0.27 0.294 0.388 0.702 0.623 1.060 0.928 0.025 0.020 0.029 0.059 0.034 0.108 0.442 0.412 0.986 0.692 1.468 1.055l0.020 0.128c0.083 0.059 0.137 0.162 0.191 0.255h0.466c0.167 0 0.304-0.137 0.304-0.304v-2.439c0-0.167-0.137-0.304-0.304-0.304h-0.589c-0.167 0-0.304-0.137-0.304-0.304v-0.859c0-0.167 0.137-0.304 0.304-0.304h2.307c0.167 0 0.304 0.137 0.304 0.304v3.907c0 0.167 0.137 0.304 0.304 0.304h0.506c0.167 0 0.304 0.137 0.304 0.304v0.103c0.088-0.069 0.118-0.182 0.206-0.265 0.044-0.005 0.049-0.039 0.108-0.034 0.373-0.412 0.672-0.883 1.041-1.296 0.083 0 0.103-0.054 0.157-0.079 0.054-0.177 0.147-0.324 0.206-0.491 0.348-0.064 0.26-0.456 0.51-0.589 0.059-0.285 0.245-0.476 0.402-0.687-0.005-0.177 0.133-0.358 0.309-0.452-0.029-0.216 0.26-0.294 0.196-0.584 0.108-0.049 0.137-0.157 0.25-0.201-0.005-0.177 0.083-0.285 0.186-0.378-0.074-0.157 0.054-0.206 0.147-0.28 0.025-0.206 0.177-0.309 0.167-0.545 0.407-0.137 0.294-0.604 0.628-0.795 0.039-0.28 0.167-0.496 0.29-0.707-0.010-0.044-0.039-0.064-0.034-0.123 0.113-0.177 0.216-0.358 0.314-0.545-0.010-0.059-0.064-0.064-0.059-0.142 0.064-0.025 0.083 0.020 0.147 0 0.039-0.147 0.064-0.299 0.167-0.393-0.005-0.088-0.128-0.015-0.113-0.133 0.059-0.015 0.083 0.020 0.147-0.005 0.039-0.152 0.083-0.294 0.142-0.427-0.010-0.064-0.064-0.074-0.074-0.137 0.025-0.064 0.069-0.113 0.147-0.133l-0.020-0.147c0.182-0.299 0.255-0.672 0.334-1.050-0.074-0.108 0.049-0.191-0.025-0.294 0.113-0.113 0.226-0.275 0.098-0.476 0.103-0.044 0.025-0.221 0.069-0.304-0.064-0.353-0.221-0.604-0.29-0.942z"></path>
<path d="M22.017 13.139c0.157-0.034 0.236-0.353 0.054-0.398-0.088 0.113-0.044 0.236-0.054 0.398z"></path>
<path d="M16.555 20.142c0.044-0.196-0.226-0.015 0 0z"></path>
<path d="M22.002 13.158c-0.044 0.020-0.025 0.088-0.015 0.152 0.098 0.010 0.103-0.157 0.015-0.152z"></path>
<path d="M22.709 12.393c-0.025-0.010-0.054-0.015-0.093-0.005l0.015 0.093c0.069 0 0.064-0.054 0.079-0.088z"></path>
<path d="M22.047 13.615l-0.054 0.010c-0.015 0.025-0.015 0.054-0.005 0.093 0.069 0.005 0.079-0.039 0.059-0.103z"></path>
<path d="M16.564 20.216c-0.029 0.083 0.010 0.241 0.108 0.226 0.049-0.049 0.064-0.128 0.064-0.211-0.034-0.034-0.098-0.029-0.172-0.015z"></path>
<path d="M21.556 15.112c0.064-0.025 0.015-0.128-0.034-0.123-0.034 0.025-0.054 0.147 0.034 0.123z"></path>
<path d="M4.245 21.109h0.535v3.357h-0.535v-3.357z"></path>
<path d="M7.215 24.466l-0.962-1.605-0.344-0.613v2.218h-0.506v-3.357h0.412l0.937 1.629 0.329 0.618v-2.248h0.506v3.357z"></path>
<path d="M9.816 22.15c0-0.353-0.172-0.564-0.55-0.564h-0.52v2.4h0.52c0.378 0 0.55-0.211 0.55-0.559v-1.276zM9.31 24.466h-1.099v-3.357h1.099c0.717 0 1.040 0.442 1.040 0.986v1.379c-0.005 0.545-0.324 0.991-1.040 0.991z"></path>
<path d="M10.92 21.109h0.535v3.357h-0.535v-3.357z"></path>
<path d="M12.083 24.466v-3.357h1.811v0.476h-1.276v0.883h0.918v0.452h-0.918v1.065h1.276v0.481z"></path>
<path d="M12.442 26.753c0-0.29-0.142-0.432-0.417-0.432h-0.564v1.041h0.623c0.27 0 0.358-0.162 0.358-0.368v-0.241zM12.412 25.271c0-0.211-0.079-0.373-0.358-0.373h-0.594v1.006h0.535c0.275 0 0.417-0.147 0.417-0.427v-0.206zM12.079 27.809h-1.158v-3.357h1.129c0.663 0 0.888 0.329 0.888 0.825v0.128c0 0.398-0.172 0.609-0.501 0.672 0.378 0.064 0.545 0.314 0.545 0.682v0.226c0 0.496-0.241 0.825-0.903 0.825z"></path>
<path d="M15.092 25.418c0-0.344-0.172-0.584-0.55-0.584-0.373 0-0.545 0.241-0.545 0.584v1.423c0 0.344 0.172 0.584 0.545 0.584 0.378 0 0.55-0.241 0.55-0.584v-1.423zM14.547 27.892c-0.751 0-1.085-0.466-1.085-1.090v-1.35c0-0.613 0.334-1.085 1.085-1.085 0.756 0 1.085 0.466 1.085 1.085v1.35c-0.005 0.623-0.329 1.090-1.085 1.090z"></path>
<path d="M17.281 27.892c-0.633 0-1.085-0.353-1.085-0.972v-2.469h0.54v2.459c0 0.344 0.172 0.53 0.545 0.53 0.378 0 0.55-0.186 0.55-0.53v-2.459h0.535v2.469c0 0.618-0.442 0.972-1.085 0.972z"></path>
<path d="M20.795 27.809l-0.962-1.605-0.344-0.613v2.218h-0.506v-3.357h0.417l0.937 1.634 0.324 0.613v-2.248h0.506v3.357z"></path>
<path d="M23.396 25.497c0-0.353-0.172-0.564-0.55-0.564h-0.52v2.4h0.52c0.378 0 0.55-0.211 0.55-0.559v-1.276zM22.891 27.809h-1.099v-3.357h1.099c0.717 0 1.041 0.442 1.041 0.986v1.379c0 0.55-0.324 0.991-1.041 0.991z"></path>
<path d="M24.265 25.026v-0.447h-0.162v-0.079h0.417v0.079h-0.162v0.447h-0.093zM24.707 24.599v0 0zM25.104 25.026v-0.427h-0.005l-0.167 0.427-0.324-0.525h0.142l0.152 0.388 0.147-0.388h0.142v0.525h-0.088z"></path>
<path d="M24.437 27.475h-0.29v0.358h0.29v-0.358zM25.664 27.406v-0.412c0-0.28-0.182-0.452-0.447-0.452-0.27 0-0.452 0.172-0.452 0.452v0.407c0 0.28 0.182 0.447 0.452 0.447 0.265 0.005 0.447-0.162 0.447-0.442zM25.36 27.465c0 0.088-0.054 0.152-0.137 0.152-0.088 0-0.142-0.059-0.142-0.152v-0.525c0-0.088 0.054-0.152 0.142-0.152 0.083 0 0.137 0.059 0.137 0.152v0.525zM26.547 26.871v-0.314c-0.182-0.044-0.314 0.034-0.373 0.26l-0.020-0.25h-0.265v1.261h0.319v-0.79c0-0.118 0.088-0.206 0.339-0.167zM27.696 26.537c0-0.025 0-0.054-0.010-0.113h-0.226c0 0.088-0.025 0.147-0.152 0.147-0.025 0-0.083-0.025-0.182-0.025-0.25 0-0.442 0.177-0.442 0.398v0.010c0 0.147 0.069 0.285 0.191 0.334-0.123 0.015-0.211 0.118-0.211 0.211 0 0.083 0.054 0.162 0.172 0.201-0.128 0.039-0.191 0.128-0.191 0.221v0.025c0 0.186 0.216 0.314 0.506 0.314 0.319 0 0.501-0.172 0.501-0.393v-0.020c0-0.201-0.137-0.334-0.466-0.334-0.206 0-0.265-0.029-0.265-0.083 0-0.044 0.039-0.088 0.108-0.088 0.025 0.005 0.079 0.010 0.108 0.010 0.275 0 0.447-0.157 0.447-0.383v-0.025c0-0.098-0.044-0.186-0.123-0.25 0.039 0.020 0.069 0.025 0.098 0.025 0.069-0.015 0.137-0.074 0.137-0.182zM27.274 26.989c0 0.083-0.054 0.152-0.147 0.152s-0.147-0.069-0.147-0.152v-0.069c0-0.088 0.054-0.152 0.147-0.152s0.147 0.064 0.147 0.152v0.069zM27.362 27.882c0 0.083-0.064 0.142-0.216 0.142-0.147 0-0.221-0.059-0.221-0.137v-0.025c0-0.083 0.069-0.133 0.221-0.133 0.162 0 0.216 0.049 0.216 0.128v0.025z"></path>
</symbol>
</defs>
</svg>
